<svg width="32" height="32" viewBox="0 0 32 32" fill="none" xmlns="http://www.w3.org/2000/svg">
<path d="M7.27 20H2.58C1.80648 17.3894 1.80648 14.6106 2.58 12H7.27C7.08644 13.3254 6.99622 14.662 7 16C6.99622 17.338 7.08644 18.6746 7.27 20Z" fill="black"/>
<path d="M7.63999 22C8.12954 24.499 9.15286 26.8629 10.64 28.93C7.43807 27.5988 4.84154 25.1305 3.34999 22H7.63999Z" fill="black"/>
<path d="M7.63999 9.99982H3.34999C4.84154 6.86936 7.43807 4.40106 10.64 3.06982C9.15286 5.13697 8.12954 7.50082 7.63999 9.99982Z" fill="black"/>
<path d="M15 2.1499V9.9999H9.7C10.71 5.8999 12.69 2.8399 15 2.1499Z" fill="black"/>
<path d="M9.29999 12H15V20H9.29999C8.90004 17.3483 8.90004 14.6517 9.29999 12Z" fill="black"/>
<path d="M9.7 22H15V29.85C12.69 29.16 10.71 26.1 9.7 22Z" fill="black"/>
<path d="M22.3 22C21.3 26.1 19.3 29.16 17 29.85V22H22.3Z" fill="black"/>
<path d="M22.3 9.9999H17V2.1499C19.31 2.8399 21.29 5.8999 22.3 9.9999Z" fill="black"/>
<path d="M22.7 20H17V12H22.7C22.8985 13.3241 22.9987 14.6611 23 16C22.9987 17.3389 22.8985 18.6759 22.7 20Z" fill="black"/>
<path d="M24.36 22H28.65C27.1584 25.1305 24.5619 27.5988 21.36 28.93C22.8471 26.8629 23.8704 24.499 24.36 22Z" fill="black"/>
<path d="M24.36 9.99982C23.8704 7.50082 22.8471 5.13697 21.36 3.06982C24.5619 4.40106 27.1584 6.86936 28.65 9.99982H24.36Z" fill="black"/>
<path d="M30 16C30.0023 17.3545 29.8069 18.702 29.42 20H24.73C24.9136 18.6746 25.0038 17.338 25 16C25.0038 14.662 24.9136 13.3254 24.73 12H29.42C29.8069 13.298 30.0023 14.6455 30 16Z" fill="black"/>
</svg>
