<svg width="18" height="18" viewBox="0 0 18 18" fill="none" xmlns="http://www.w3.org/2000/svg">
<path d="M3.54383 11.5H0.612583C0.129139 9.86839 0.129139 8.13161 0.612583 6.5H3.54383C3.42911 7.32835 3.37272 8.16374 3.37508 9C3.37272 9.83626 3.42911 10.6716 3.54383 11.5Z" fill="#616161"/>
<path d="M3.775 12.75C4.08097 14.3119 4.72054 15.7893 5.65 17.0812C3.6488 16.2492 2.02597 14.7065 1.09375 12.75H3.775Z" fill="#616161"/>
<path d="M3.775 5.25001H1.09375C2.02597 3.29347 3.6488 1.75079 5.65 0.918762C4.72054 2.21073 4.08097 3.68814 3.775 5.25001Z" fill="#616161"/>
<path d="M8.375 0.34375V5.25H5.0625C5.69375 2.6875 6.93125 0.775 8.375 0.34375Z" fill="#616161"/>
<path d="M4.81248 6.5H8.37498V11.5H4.81248C4.56251 9.84271 4.56251 8.15729 4.81248 6.5Z" fill="#616161"/>
<path d="M5.0625 12.75H8.375V17.6562C6.93125 17.225 5.69375 15.3125 5.0625 12.75Z" fill="#616161"/>
<path d="M12.9375 12.75C12.3125 15.3125 11.0625 17.225 9.625 17.6562V12.75H12.9375Z" fill="#616161"/>
<path d="M12.9375 5.25H9.625V0.34375C11.0688 0.775 12.3063 2.6875 12.9375 5.25Z" fill="#616161"/>
<path d="M13.1875 11.5H9.625V6.5H13.1875C13.3115 7.32757 13.3742 8.16318 13.375 9C13.3742 9.83682 13.3115 10.6724 13.1875 11.5Z" fill="#616161"/>
<path d="M14.2251 12.75H16.9063C15.9741 14.7065 14.3513 16.2492 12.3501 17.0812C13.2796 15.7893 13.9191 14.3119 14.2251 12.75Z" fill="#616161"/>
<path d="M14.2251 5.25001C13.9191 3.68814 13.2796 2.21073 12.3501 0.918762C14.3513 1.75079 15.9741 3.29347 16.9063 5.25001H14.2251Z" fill="#616161"/>
<path d="M17.7503 9C17.7517 9.84653 17.6296 10.6887 17.3878 11.5H14.4565C14.5713 10.6716 14.6277 9.83626 14.6253 9C14.6277 8.16374 14.5713 7.32835 14.4565 6.5H17.3878C17.6296 7.31126 17.7517 8.15347 17.7503 9Z" fill="#616161"/>
</svg>
