<svg width="28" height="28" viewBox="0 0 28 28" fill="none" xmlns="http://www.w3.org/2000/svg">
<path d="M14 0C11.2311 0 8.52431 0.821086 6.22202 2.35943C3.91973 3.89777 2.12532 6.08427 1.06569 8.64243C0.00606596 11.2006 -0.271181 14.0155 0.269012 16.7313C0.809205 19.447 2.14258 21.9416 4.10051 23.8995C6.05845 25.8574 8.55301 27.1908 11.2687 27.731C13.9845 28.2712 16.7994 27.9939 19.3576 26.9343C21.9157 25.8747 24.1022 24.0803 25.6406 21.778C27.1789 19.4757 28 16.7689 28 14C28 10.287 26.525 6.72601 23.8995 4.1005C21.274 1.475 17.713 0 14 0ZM8.91001 3.13C7.72372 4.90553 6.90746 6.90195 6.51001 9H3.09001C4.2822 6.42178 6.34208 4.34421 8.91001 3.13ZM2.00001 14C1.9988 12.9879 2.12649 11.9798 2.38001 11H6.18001C5.94001 12.9928 5.94001 15.0072 6.18001 17H2.38001C2.12649 16.0202 1.9988 15.0121 2.00001 14ZM3.09001 19H6.51001C6.90746 21.0981 7.72372 23.0945 8.91001 24.87C6.34208 23.6558 4.2822 21.5782 3.09001 19ZM13 25.82C11.06 25.14 9.40001 22.5 8.58001 19H13V25.82ZM13 17H8.21001C7.92996 15.0098 7.92996 12.9902 8.21001 11H13V17ZM13 9H8.58001C9.40001 5.5 11.06 2.86 13 2.18V9ZM24.91 9H21.49C21.0926 6.90195 20.2763 4.90553 19.09 3.13C21.6579 4.34421 23.7178 6.42178 24.91 9ZM15 2.18C16.94 2.86 18.6 5.5 19.43 9H15V2.18ZM15 11H19.79C20.0701 12.9902 20.0701 15.0098 19.79 17H15V11ZM15 25.82V19H19.43C18.6 22.5 16.94 25.14 15 25.82ZM19.09 24.87C20.2763 23.0945 21.0926 21.0981 21.49 19H24.91C23.7178 21.5782 21.6579 23.6558 19.09 24.87ZM21.82 17C21.9418 16.0047 22.002 15.0028 22 14C22.002 12.9972 21.9418 11.9953 21.82 11H25.62C26.1281 12.9677 26.1281 15.0323 25.62 17H21.82Z" fill="black"/>
</svg>
