<svg width="15" height="15" viewBox="0 0 15 15" fill="none" xmlns="http://www.w3.org/2000/svg">
<path d="M7.00129 14.9989C8.85781 14.9989 10.6383 14.2614 11.951 12.9486C13.2638 11.6359 14.0013 9.85539 14.0013 7.99887C14.0013 7.86626 13.9486 7.73909 13.8548 7.64532C13.7611 7.55155 13.6339 7.49887 13.5013 7.49887C13.3687 7.49887 13.2415 7.55155 13.1477 7.64532C13.054 7.73909 13.0013 7.86626 13.0013 7.99887C13.001 9.3709 12.5305 10.7014 11.6682 11.7686C10.8059 12.8358 9.60391 13.5752 8.26254 13.8636C6.92117 14.152 5.52147 13.972 4.29674 13.3535C3.072 12.7351 2.09622 11.7156 1.53204 10.4649C0.967851 9.21424 0.849341 7.808 1.19626 6.48056C1.54318 5.15311 2.33457 3.98466 3.43852 3.16996C4.54248 2.35526 5.8923 1.94352 7.26302 2.00337C8.63374 2.06322 9.94255 2.59105 10.9713 3.49887L8.50129 3.49887C8.36868 3.49887 8.24151 3.55155 8.14774 3.64532C8.05397 3.73909 8.00129 3.86626 8.00129 3.99887C8.00129 4.13148 8.05397 4.25866 8.14774 4.35242C8.24151 4.44619 8.36868 4.49887 8.50129 4.49887L12.0013 4.49887C12.1339 4.49887 12.2611 4.44619 12.3548 4.35243C12.4486 4.25866 12.5013 4.13148 12.5013 3.99887L12.5013 0.498871C12.5013 0.366263 12.4486 0.239086 12.3548 0.145318C12.2611 0.0515498 12.1339 -0.00112862 12.0013 -0.00112863C11.8687 -0.00112863 11.7415 0.0515498 11.6477 0.145318C11.554 0.239086 11.5013 0.366263 11.5013 0.498871L11.5013 2.63887C10.6394 1.91492 9.61569 1.40949 8.5169 1.16542C7.4181 0.921352 6.27666 0.945851 5.18935 1.23684C4.10204 1.52783 3.10093 2.07673 2.27092 2.83699C1.44091 3.59725 0.806473 4.54645 0.421403 5.60411C0.0363342 6.66176 -0.0880083 7.79668 0.0589193 8.91262C0.205847 10.0286 0.619712 11.0926 1.26542 12.0146C1.91113 12.9365 2.76964 13.6891 3.76814 14.2087C4.76665 14.7282 5.87572 14.9992 7.00129 14.9989Z" fill="#424242"/>
</svg>
