<svg width="12" height="2" viewBox="0 0 12 2" fill="none" xmlns="http://www.w3.org/2000/svg">
  <path d="M6 2C6.55228 2 7 1.55228 7 1C7 0.447715 6.55228 0 6 0C5.44772 0 5 0.447715 5 1C5 1.55228 5.44772 2 6 2Z"
    fill="#008184" />
  <path
    d="M10.5 2C11.0523 2 11.5 1.55228 11.5 1C11.5 0.447715 11.0523 0 10.5 0C9.94772 0 9.5 0.447715 9.5 1C9.5 1.55228 9.94772 2 10.5 2Z"
    fill="#008184" />
  <path
    d="M1.5 2C2.05228 2 2.5 1.55228 2.5 1C2.5 0.447715 2.05228 0 1.5 0C0.947715 0 0.5 0.447715 0.5 1C0.5 1.55228 0.947715 2 1.5 2Z"
    fill="#008184" />
</svg>
