<?xml version="1.0" standalone="no"?><!DOCTYPE svg PUBLIC "-//W3C//DTD SVG 1.1//EN" "http://www.w3.org/Graphics/SVG/1.1/DTD/svg11.dtd"><svg t="1725269371791" class="icon" viewBox="0 0 1024 1024" version="1.1" xmlns="http://www.w3.org/2000/svg" p-id="7992" xmlns:xlink="http://www.w3.org/1999/xlink" width="200" height="200"><path d="M960 64H64C27.733333 64 0 91.733333 0 128v597.333333c0 36.266667 27.733333 64 64 64h426.666667v128h-128c-10.666667 0-21.333333 10.666667-21.333334 21.333334s10.666667 21.333333 21.333334 21.333333h298.666666c10.666667 0 21.333333-10.666667 21.333334-21.333333s-10.666667-21.333333-21.333334-21.333334h-128v-128h426.666667c36.266667 0 64-27.733333 64-64V128c0-36.266667-27.733333-64-64-64z m21.333333 661.333333c0 12.8-8.533333 21.333333-21.333333 21.333334H64c-12.8 0-21.333333-8.533333-21.333333-21.333334V128c0-12.8 8.533333-21.333333 21.333333-21.333333h896c12.8 0 21.333333 8.533333 21.333333 21.333333v597.333333z" p-id="7993"></path></svg>