<svg width="22" height="18" viewBox="0 0 22 18" fill="none" xmlns="http://www.w3.org/2000/svg">
<path d="M20.625 3.75001H11.3587L8.12125 0.503765C8.03949 0.422668 7.94253 0.358509 7.83592 0.314965C7.72931 0.271421 7.61516 0.249349 7.5 0.250015H1.375C1.14294 0.250015 0.920376 0.342202 0.756282 0.506296C0.592187 0.670391 0.5 0.89295 0.5 1.12501V16.875C0.5 17.1071 0.592187 17.3296 0.756282 17.4937C0.920376 17.6578 1.14294 17.75 1.375 17.75H20.625C20.8571 17.75 21.0796 17.6578 21.2437 17.4937C21.4078 17.3296 21.5 17.1071 21.5 16.875V4.62501C21.5 4.39295 21.4078 4.17039 21.2437 4.0063C21.0796 3.8422 20.8571 3.75001 20.625 3.75001ZM2.25 2.00001H7.14125L8.89125 3.75001H2.25V2.00001ZM19.75 16H2.25V5.50001H19.75V16Z" fill="#4E5B61"/>
</svg>
