<svg width="8" height="7" viewBox="0 0 8 7" fill="none" xmlns="http://www.w3.org/2000/svg">
<path d="M2.5 6.18999C2.415 6.18999 2.33 6.16999 2.25 6.12499C1.17 5.49999 0.5 4.33999 0.5 3.09499C0.5 1.84999 1.17 0.689992 2.25 0.0649925C2.49 -0.0700075 2.795 0.00999246 2.935 0.249992C3.07 0.489992 2.99 0.794992 2.75 0.934992C1.98 1.37499 1.5 2.20499 1.5 3.09499C1.5 3.98499 1.98 4.81499 2.75 5.25499C2.99 5.39499 3.07 5.69999 2.935 5.93999C2.84 6.09999 2.675 6.18999 2.5 6.18999Z" fill="#008184"/>
<path d="M5.49993 6.18999C5.32493 6.18999 5.15993 6.09999 5.06493 5.93999C4.92493 5.69999 5.00993 5.39499 5.24993 5.25499C6.01993 4.81499 6.49993 3.98499 6.49993 3.09499C6.49993 2.20499 6.01993 1.37499 5.24993 0.934992C5.00993 0.794992 4.92993 0.489992 5.06493 0.249992C5.20493 0.00999246 5.50993 -0.0700075 5.74993 0.0649925C6.82993 0.689992 7.49993 1.84999 7.49993 3.09499C7.49993 4.33999 6.82993 5.49999 5.74993 6.12499C5.66993 6.16999 5.58493 6.18999 5.49993 6.18999Z" fill="#008184"/>
</svg>
