<svg width="32" height="32" viewBox="0 0 32 32" fill="none" xmlns="http://www.w3.org/2000/svg">
<path d="M27 6H5.00002C4.73504 6.00077 4.48113 6.10637 4.29376 6.29374C4.10639 6.48111 4.00079 6.73502 4.00002 7V19H28V7C27.9993 6.73502 27.8937 6.48111 27.7063 6.29374C27.5189 6.10637 27.265 6.00077 27 6ZM9.29002 10.29L10.29 9.29C10.4786 9.10297 10.7336 8.99826 10.9992 8.9988C11.2648 8.99934 11.5193 9.10509 11.7071 9.29289C11.8949 9.4807 12.0007 9.73526 12.0012 10.0008C12.0018 10.2664 11.8971 10.5214 11.71 10.71L10.71 11.71C10.5204 11.8959 10.2655 12 10 12C9.73452 12 9.4796 11.8959 9.29002 11.71C9.10267 11.5212 8.99754 11.266 8.99754 11C8.99754 10.734 9.10267 10.4788 9.29002 10.29ZM16.71 11.71L12.71 15.71C12.5204 15.8959 12.2655 16 12 16C11.7345 16 11.4796 15.8959 11.29 15.71C11.1027 15.5212 10.9975 15.266 10.9975 15C10.9975 14.734 11.1027 14.4788 11.29 14.29L15.29 10.29C15.4786 10.103 15.7336 9.99826 15.9992 9.9988C16.2648 9.99934 16.5193 10.1051 16.7071 10.2929C16.8949 10.4807 17.0007 10.7353 17.0012 11.0008C17.0018 11.2664 16.8971 11.5214 16.71 11.71Z" fill="black"/>
<path d="M30.89 25.4516C30.8063 25.616 30.679 25.7543 30.5221 25.8513C30.3651 25.9482 30.1845 26.0003 30 26.0016H2.00002C1.81552 26.0003 1.63493 25.9482 1.47798 25.8513C1.32102 25.7543 1.19374 25.616 1.11002 25.4516C1.02538 25.2856 0.988954 25.0993 1.00486 24.9137C1.02077 24.7281 1.08838 24.5507 1.20002 24.4016L3.75002 21.0016H28.25L30.8 24.4016C30.9117 24.5507 30.9793 24.7281 30.9952 24.9137C31.0111 25.0993 30.9747 25.2856 30.89 25.4516Z" fill="black"/>
</svg>
