<svg width="20" height="14" viewBox="0 0 20 14" fill="none" xmlns="http://www.w3.org/2000/svg">
  <path
    d="M19.2492 12.2509L17.4992 9.9197V1.37595C17.4987 1.21033 17.4327 1.05164 17.3156 0.934533C17.1985 0.817426 17.0398 0.751424 16.8742 0.750946H3.12422C2.95861 0.751441 2.79992 0.817448 2.68282 0.934551C2.56572 1.05165 2.49971 1.21034 2.49922 1.37595V9.9197L0.749217 12.2509C0.679462 12.3442 0.637219 12.455 0.627276 12.571C0.617334 12.687 0.640091 12.8035 0.692967 12.9072C0.745302 13.0099 0.824858 13.0964 0.922952 13.157C1.02105 13.2176 1.13391 13.2501 1.24922 13.2509H18.7492C18.8645 13.2501 18.9774 13.2176 19.0755 13.157C19.1736 13.0964 19.2531 13.0099 19.3055 12.9072C19.3583 12.8035 19.3811 12.687 19.3712 12.571C19.3612 12.455 19.319 12.3442 19.2492 12.2509ZM3.74922 2.00095H16.2492V9.50095H3.74922V2.00095ZM2.49922 12.0009L3.43672 10.7509H16.5617L17.4992 12.0009H2.49922Z"
    fill="#616161" />
  <path
    d="M7.49987 7.62501C7.37627 7.62498 7.25546 7.58831 7.15271 7.51964C7.04995 7.45096 6.96986 7.35336 6.92257 7.23917C6.87527 7.12498 6.8629 6.99934 6.887 6.87812C6.91111 6.7569 6.97061 6.64554 7.05799 6.55814L9.55799 4.05814C9.67587 3.94429 9.83374 3.88129 9.99762 3.88271C10.1615 3.88414 10.3182 3.94987 10.4341 4.06575C10.55 4.18163 10.6157 4.33839 10.6172 4.50226C10.6186 4.66613 10.5556 4.82401 10.4417 4.94189L7.94174 7.44189C7.88379 7.50002 7.81491 7.54612 7.73908 7.57755C7.66325 7.60898 7.58195 7.62511 7.49987 7.62501Z"
    fill="#616161" />
  <path
    d="M6.24987 5.12501C6.12627 5.12498 6.00546 5.08831 5.90271 5.01964C5.79995 4.95096 5.71986 4.85336 5.67257 4.73917C5.62527 4.62498 5.6129 4.49934 5.637 4.37812C5.66111 4.2569 5.72061 4.14554 5.80799 4.05814L6.43299 3.43314C6.55087 3.31929 6.70874 3.25629 6.87262 3.25771C7.03649 3.25914 7.19325 3.32487 7.30913 3.44075C7.42501 3.55663 7.49074 3.71339 7.49216 3.87726C7.49359 4.04113 7.43059 4.19901 7.31674 4.31688L6.69174 4.94189C6.63379 5.00002 6.56491 5.04612 6.48908 5.07755C6.41325 5.10898 6.33195 5.12511 6.24987 5.12501Z"
    fill="#616161" />
</svg>
