<svg width="32" height="32" viewBox="0 0 32 32" fill="none" xmlns="http://www.w3.org/2000/svg">
<path d="M30.7985 24.4015L27.9985 20.6715V7.00153C27.9977 6.73654 27.8921 6.48264 27.7048 6.29526C27.5174 6.10789 27.2635 6.00229 26.9985 6.00153H4.9985C4.73353 6.00232 4.47964 6.10793 4.29227 6.29529C4.10491 6.48266 3.99929 6.73655 3.9985 7.00153V20.6715L1.1985 24.4015C1.0869 24.5507 1.01931 24.7281 1.0034 24.9137C0.98749 25.0992 1.0239 25.2856 1.1085 25.4515C1.19224 25.6159 1.31953 25.7542 1.47648 25.8512C1.63343 25.9482 1.81401 26.0002 1.9985 26.0015H29.9985C30.183 26.0002 30.3636 25.9482 30.5205 25.8512C30.6775 25.7542 30.8048 25.6159 30.8885 25.4515C30.9731 25.2856 31.0095 25.0992 30.9936 24.9137C30.9777 24.7281 30.9101 24.5507 30.7985 24.4015ZM5.9985 8.00153H25.9985V20.0015H5.9985V8.00153ZM3.9985 24.0015L5.4985 22.0015H26.4985L27.9985 24.0015H3.9985Z" fill="black"/>
<path d="M12 17C11.8023 17 11.609 16.9413 11.4445 16.8314C11.2801 16.7216 11.152 16.5654 11.0763 16.3827C11.0007 16.2 10.9808 15.999 11.0194 15.805C11.058 15.6111 11.1532 15.4329 11.293 15.293L15.293 11.293C15.4816 11.1109 15.7342 11.0101 15.9964 11.0124C16.2586 11.0146 16.5094 11.1198 16.6948 11.3052C16.8802 11.4906 16.9854 11.7414 16.9877 12.0036C16.99 12.2658 16.8892 12.5184 16.707 12.707L12.707 16.707C12.6143 16.8001 12.5041 16.8738 12.3827 16.9241C12.2614 16.9744 12.1313 17.0002 12 17Z" fill="black"/>
<path d="M10 13C9.80225 13 9.60895 12.9413 9.44454 12.8314C9.28013 12.7216 9.15199 12.5654 9.07632 12.3827C9.00065 12.2 8.98085 11.999 9.01942 11.805C9.05798 11.6111 9.15319 11.4329 9.293 11.293L10.293 10.293C10.4816 10.1109 10.7342 10.0101 10.9964 10.0124C11.2586 10.0146 11.5094 10.1198 11.6948 10.3052C11.8802 10.4906 11.9854 10.7414 11.9877 11.0036C11.99 11.2658 11.8892 11.5184 11.707 11.707L10.707 12.707C10.6143 12.8001 10.5041 12.8738 10.3827 12.9241C10.2614 12.9744 10.1313 13.0002 10 13Z" fill="black"/>
</svg>
