<?xml version="1.0" standalone="no"?><!DOCTYPE svg PUBLIC "-//W3C//DTD SVG 1.1//EN" "http://www.w3.org/Graphics/SVG/1.1/DTD/svg11.dtd"><svg t="1725269364729" class="icon" viewBox="0 0 960 960" version="1.1" xmlns="http://www.w3.org/2000/svg" p-id="7833" xmlns:xlink="http://www.w3.org/1999/xlink" width="250" height="250"><path d="M508.763 245.961m-6.5 0a6.5 6.5 0 1 0 13 0 6.5 6.5 0 1 0-13 0Z" fill="#FFFFFF" p-id="7834"></path><path d="M115.853 192.606H906v476.787H115.853z" fill="#02FFF0" p-id="7835"></path><path d="M903.982 718H118.018C89.335 718 66 694.665 66 665.982V196.018C66 167.335 89.335 144 118.018 144h785.965C932.665 144 956 167.335 956 196.018v469.965C956 694.665 932.665 718 903.982 718zM118.018 172C104.774 172 94 182.774 94 196.018v469.965C94 679.226 104.774 690 118.018 690h785.965C917.226 690 928 679.226 928 665.982V196.018C928 182.774 917.226 172 903.982 172H118.018z" fill="" p-id="7836"></path><path d="M483.263 693.333H540V874h-56.737z" fill="" p-id="7837"></path><path d="M682.5 874.721H341.575c-11.825 0-21.5-9.675-21.5-21.5s9.675-21.5 21.5-21.5H682.5c11.825 0 21.5 9.675 21.5 21.5s-9.675 21.5-21.5 21.5z" fill="" p-id="7838"></path><path d="M329.283 358.408c-4.689 3.823-11.653 3.115-15.477-1.573L194.5 210.525c-3.823-4.689-3.115-11.653 1.573-15.477 4.689-3.823 11.653-3.115 15.477 1.573L330.856 342.93c3.823 4.69 3.115 11.654-1.573 15.478z" fill="#FFFFFF" p-id="7839"></path><path d="M334.245 466.874c-4.689 3.823-11.653 3.115-15.477-1.573L118.316 219.479c-3.823-4.689-3.115-11.653 1.573-15.477 4.689-3.823 11.653-3.115 15.477 1.573l200.452 245.822c3.824 4.689 3.116 11.654-1.573 15.477z" fill="#FFFFFF" p-id="7840"></path><path d="M345.25 378.25m-9.75 0a9.75 9.75 0 1 0 19.5 0 9.75 9.75 0 1 0-19.5 0Z" fill="#FFFFFF" p-id="7841"></path></svg>