<?xml version="1.0" encoding="utf-8"?>
<!-- Generator: Adobe Illustrator 16.0.0, SVG Export Plug-In . SVG Version: 6.00 Build 0)  -->
<!DOCTYPE svg PUBLIC "-//W3C//DTD SVG 1.1//EN" "http://www.w3.org/Graphics/SVG/1.1/DTD/svg11.dtd">
<svg version="1.1" id="Layer_1" xmlns:xml="http://www.w3.org/XML/1998/namespace"
	 xmlns="http://www.w3.org/2000/svg" xmlns:xlink="http://www.w3.org/1999/xlink" x="0px" y="0px" width="71.999px"
	 height="136.758px" viewBox="0.131 -0.125 71.999 136.758" enable-background="new 0.131 -0.125 71.999 136.758"
	 xml:space="preserve">
<desc>
	<referenceFile>lz-esp8266.svg</referenceFile>
</desc>
<g>
	<path fill="#2329A0" d="M72.131,131.625V4.879c0-2.764-2.27-5.004-5.064-5.004H5.194c-2.795,0-5.063,2.24-5.063,5.004v126.747
		c0,2.767,2.269,5.008,5.063,5.008h61.873C69.864,136.631,72.131,134.39,72.131,131.625z M70.313,6.408
		c0,2.352-1.924,4.259-4.295,4.259c-2.369,0-4.293-1.905-4.293-4.259c0-2.355,1.922-4.261,4.293-4.261
		C68.387,2.147,70.313,4.053,70.313,6.408z M1.726,6.408c0-2.355,1.92-4.261,4.292-4.261s4.299,1.905,4.299,4.261
		c0,2.352-1.927,4.259-4.299,4.259C3.646,10.667,1.726,8.759,1.726,6.408z M1.726,130.424c0-2.354,1.92-4.26,4.292-4.26
		s4.299,1.904,4.299,4.26c0,2.353-1.927,4.259-4.299,4.259C3.646,134.683,1.726,132.776,1.726,130.424z M61.725,130.424
		c0-2.354,1.922-4.26,4.293-4.26c2.369,0,4.293,1.904,4.293,4.26c0,2.353-1.922,4.259-4.293,4.259S61.725,132.776,61.725,130.424z"
		/>
	<g transform="matrix(-4.371139e-008 1 -1 -4.371139e-008 95.9653 -19.9355)">
		<g>
			<text transform="matrix(1 0 0 1 34.7324 34.7353)" fill="#FFFFFF" font-family="'ArialMT'" font-size="2.5">D23</text>
		</g>
	</g>
	<g transform="matrix(-4.371139e-008 1 -1 -4.371139e-008 95.9673 -12.6455)">
		<g>
			<text transform="matrix(1 0 0 1 34.7324 34.7334)" fill="#FFFFFF" font-family="'ArialMT'" font-size="2.5">D22</text>
		</g>
	</g>
	<g transform="matrix(-4.371139e-008 1 -1 -4.371139e-008 95.9673 -5.3545)">
		<g>
			<text transform="matrix(1 0 0 1 34.7324 34.7334)" fill="#FFFFFF" font-family="'ArialMT'" font-size="2.5">TX0</text>
		</g>
	</g>
	<g transform="matrix(-4.371139e-008 1 -1 -4.371139e-008 95.9673 1.9365)">
		<g>
			<text transform="matrix(1 0 0 1 34.7325 34.7334)" fill="#FFFFFF" font-family="'ArialMT'" font-size="2.5">RX0</text>
		</g>
	</g>
	<g transform="matrix(-4.371139e-008 1 -1 -4.371139e-008 95.9673 9.2266)">
		<g>
			<text transform="matrix(1 0 0 1 34.7324 34.7334)" fill="#FFFFFF" font-family="'ArialMT'" font-size="2.5">D21</text>
		</g>
	</g>
	<g transform="matrix(-4.371139e-008 1 -1 -4.371139e-008 95.9673 15.6143)">
		<g>
			<text transform="matrix(1 0 0 1 34.7324 34.7334)" fill="#FFFFFF" font-family="'ArialMT'" font-size="2.5">D19</text>
		</g>
	</g>
	<g transform="matrix(-4.371139e-008 1 -1 -4.371139e-008 95.9673 22.9043)">
		<g>
			<text transform="matrix(1 0 0 1 34.7324 34.7334)" fill="#FFFFFF" font-family="'ArialMT'" font-size="2.5">D18</text>
		</g>
	</g>
	<g transform="matrix(-4.371139e-008 1 -1 -4.371139e-008 95.9653 31.0986)">
		<g>
			<text transform="matrix(1 0 0 1 34.7325 34.7353)" fill="#FFFFFF" font-family="'ArialMT'" font-size="2.5">D5</text>
		</g>
	</g>
	<g transform="matrix(-4.371139e-008 1 -1 -4.371139e-008 95.9673 38.3896)">
		<g>
			<text transform="matrix(1 0 0 1 34.733 34.7334)" fill="#FFFFFF" font-family="'ArialMT'" font-size="2.5">TX2</text>
		</g>
	</g>
	<g transform="matrix(-4.371139e-008 1 -1 -4.371139e-008 95.9653 45.6807)">
		<g>
			<text transform="matrix(1 0 0 1 34.7329 34.7353)" fill="#FFFFFF" font-family="'ArialMT'" font-size="2.5">RX2</text>
		</g>
	</g>
	<g transform="matrix(-4.371139e-008 1 -1 -4.371139e-008 95.9673 52.9717)">
		<g>
			<text transform="matrix(1 0 0 1 34.7329 34.7334)" fill="#FFFFFF" font-family="'ArialMT'" font-size="2.5">D4</text>
		</g>
	</g>
	<g transform="matrix(-4.371139e-008 1 -1 -4.371139e-008 95.9653 60.2617)">
		<g>
			<text transform="matrix(1 0 0 1 34.7329 34.7353)" fill="#FFFFFF" font-family="'ArialMT'" font-size="2.5">D2</text>
		</g>
	</g>
	<g transform="matrix(-4.371139e-008 1 -1 -4.371139e-008 95.9673 67.5527)">
		<g>
			<text transform="matrix(1 0 0 1 34.7329 34.7334)" fill="#FFFFFF" font-family="'ArialMT'" font-size="2.5">D15</text>
		</g>
	</g>
	<g transform="matrix(-4.371139e-008 1 -1 -4.371139e-008 95.9653 73.9399)">
		<g>
			<text transform="matrix(1 0 0 1 34.7325 34.7353)" fill="#FFFFFF" font-family="'ArialMT'" font-size="2.5">GND</text>
		</g>
	</g>
	<g transform="matrix(-4.371139e-008 1 -1 -4.371139e-008 95.9673 81.231)">
		<g>
			<text transform="matrix(1 0 0 1 34.7333 34.7334)" fill="#FFFFFF" font-family="'ArialMT'" font-size="2.5">3V3</text>
		</g>
	</g>
	<g transform="matrix(4.371139e-008 -1 1 4.371139e-008 45.7905 86.8931)">
		<g>
			<text transform="matrix(1 0 0 1 -34.7324 -34.7339)" fill="#FFFFFF" font-family="'ArialMT'" font-size="2.5">VIN</text>
		</g>
	</g>
	<g transform="matrix(4.371139e-008 -1 1 4.371139e-008 45.7905 79.7446)">
		<g>
			<text transform="matrix(1 0 0 1 -34.7325 -34.7339)" fill="#FFFFFF" font-family="'ArialMT'" font-size="2.5">GND</text>
		</g>
	</g>
	<g transform="matrix(4.371139e-008 -1 1 4.371139e-008 45.7905 72.5962)">
		<g>
			<text transform="matrix(1 0 0 1 -34.7324 -34.7339)" fill="#FFFFFF" font-family="'ArialMT'" font-size="2.5">D13</text>
		</g>
	</g>
	<g transform="matrix(4.371139e-008 -1 1 4.371139e-008 45.7905 64.3643)">
		<g>
			<text transform="matrix(1 0 0 1 -34.7319 -34.7339)" fill="#FFFFFF" font-family="'ArialMT'" font-size="2.5">D12</text>
		</g>
	</g>
	<g transform="matrix(4.371139e-008 -1 1 4.371139e-008 45.7905 58.2998)">
		<g>
			<text transform="matrix(1 0 0 1 -34.7319 -34.7339)" fill="#FFFFFF" font-family="'ArialMT'" font-size="2.5">D14</text>
		</g>
	</g>
	<g transform="matrix(4.371139e-008 -1 1 4.371139e-008 45.7905 51.1514)">
		<g>
			<text transform="matrix(1 0 0 1 -34.7319 -34.7339)" fill="#FFFFFF" font-family="'ArialMT'" font-size="2.5">D27</text>
		</g>
	</g>
	<g transform="matrix(4.371139e-008 -1 1 4.371139e-008 45.7905 0.1113)">
		<g>
			<text transform="matrix(1 0 0 1 -34.7325 -34.7339)" fill="#FFFFFF" font-family="'ArialMT'" font-size="2.5">VN</text>
		</g>
	</g>
	<g transform="matrix(4.371139e-008 -1 1 4.371139e-008 45.7905 7.2139)">
		<g>
			<text transform="matrix(1 0 0 1 -34.7324 -34.7339)" fill="#FFFFFF" font-family="'ArialMT'" font-size="2.5">D34</text>
		</g>
	</g>
	<g transform="matrix(4.371139e-008 -1 1 4.371139e-008 45.7905 14.0557)">
		<g>
			<text transform="matrix(1 0 0 1 -34.7324 -34.7339)" fill="#FFFFFF" font-family="'ArialMT'" font-size="2.5">D35</text>
		</g>
	</g>
	<g transform="matrix(4.371139e-008 -1 1 4.371139e-008 45.7905 21.0361)">
		<g>
			<text transform="matrix(1 0 0 1 -34.7325 -34.7339)" fill="#FFFFFF" font-family="'ArialMT'" font-size="2.5">D32</text>
		</g>
	</g>
	<g transform="matrix(4.371139e-008 -1 1 4.371139e-008 45.7905 28.5771)">
		<g>
			<text transform="matrix(1 0 0 1 -34.7325 -34.7339)" fill="#FFFFFF" font-family="'ArialMT'" font-size="2.5">D33</text>
		</g>
	</g>
	<g transform="matrix(4.371139e-008 -1 1 4.371139e-008 45.7905 -7.6982)">
		<g>
			<text transform="matrix(1 0 0 1 -34.7324 -34.7339)" fill="#FFFFFF" font-family="'ArialMT'" font-size="2.5">VP</text>
		</g>
	</g>
	<g transform="matrix(4.371139e-008 -1 1 4.371139e-008 45.7905 -17.1045)">
		<g>
			<text transform="matrix(1 0 0 1 -34.7324 -34.7339)" fill="#FFFFFF" font-family="'ArialMT'" font-size="2.5">EN</text>
		</g>
	</g>
	<rect x="50.399" y="123.961" fill="#BEC0C2" width="8" height="7.834"/>
	<circle fill="#231F20" cx="54.315" cy="127.881" r="2.75"/>
	<rect x="13.6" y="123.961" fill="#BEC0C2" width="8" height="7.834"/>
	<circle fill="#231F20" cx="17.516" cy="127.881" r="2.75"/>
	<g transform="matrix(1 0 0 1 84.9692 88.064)">
		<g>
			<text transform="matrix(1 0 0 1 -34.7334 34.7324)" fill="#FFFFFF" font-family="'ArialMT'" font-size="2.5">FLASH</text>
		</g>
	</g>
	<rect x="15.401" fill="#232323" width="41.664" height="66.659"/>
	<g transform="matrix(1 0 0 1 50.1353 88.063)">
		<g>
			<text transform="matrix(1 0 0 1 -34.7339 34.7324)" fill="#FFFFFF" font-family="'ArialMT'" font-size="2.5">RST</text>
		</g>
	</g>
	<rect x="16.534" y="21.132" fill="#DCE0DA" width="39.033" height="43.5"/>
	<rect x="41.397" y="2.361" fill="#B68B2D" width="11.834" height="1.312"/>
	<rect x="41.397" y="2.467" fill="#B68B2D" width="1.168" height="11.099"/>
	<rect x="37.593" y="2.467" fill="#B68B2D" width="1.168" height="11.099"/>
	<rect x="33.787" y="2.467" fill="#B68B2D" width="1.168" height="11.099"/>
	<rect x="29.983" y="2.467" fill="#B68B2D" width="1.168" height="11.099"/>
	<rect x="26.177" y="2.467" fill="#B68B2D" width="1.168" height="11.099"/>
	<rect x="22.373" y="2.467" fill="#B68B2D" width="1.168" height="11.099"/>
	<rect x="37.591" y="12.254" fill="#B68B2D" width="4.975" height="1.312"/>
	<rect x="33.787" y="2.467" fill="#B68B2D" width="4.167" height="1.313"/>
	<rect x="29.983" y="12.254" fill="#B68B2D" width="4.973" height="1.312"/>
	<rect x="26.175" y="2.467" fill="#B68B2D" width="4.977" height="1.313"/>
	<rect x="22.371" y="12.254" fill="#B68B2D" width="4.974" height="1.312"/>
	<rect x="17.597" y="3.018" fill="#B68B2D" width="1.168" height="18.114"/>
	<rect x="17.597" y="2.467" fill="#B68B2D" width="5.944" height="1.312"/>
	<rect x="17.668" y="16.495" fill="#B68B2D" width="24.313" height="1.312"/>
	<rect x="17.373" y="76.706" fill="#524B4C" width="8.265" height="14.589"/>
	<rect x="18.961" y="98.938" fill="#524B4C" width="3.996" height="5.734"/>
	<g>
		<path fill="#EF8205" d="M35.468,32.616c0,2.268,1.67,4.105,3.729,4.105s3.727-1.837,3.727-4.105c0-2.266-1.668-4.104-3.727-4.104
			C37.138,28.513,35.468,30.351,35.468,32.616L35.468,32.616z M38.026,32.616c0-0.71,0.522-1.287,1.17-1.287
			c0.646,0,1.169,0.577,1.169,1.287c0,0.712-0.523,1.29-1.169,1.29C38.548,33.906,38.026,33.328,38.026,32.616z"/>
		<path fill="#454D4B" d="M33.058,31.675c0.456-3.461,3.156-6.123,6.425-6.123c3.589,0,6.501,3.204,6.501,7.156
			c0,4.841-4.357,8.187-8.387,6.851c-0.057,0.624-0.262,1.123-0.676,1.59c5.021,1.827,10.645-2.288,10.645-8.44
			c0-4.915-3.62-8.9-8.083-8.9c-3.387,0-6.285,2.296-7.486,5.553l0,0c0.34,0.407,0.85,1.177,1.059,2.322
			C33.055,31.683,33.056,31.675,33.058,31.675L33.058,31.675z M25.85,32.616c0,4.142,5.764,4.142,5.764,0
			C31.614,28.476,25.85,28.476,25.85,32.616L25.85,32.616z M24.329,32.616c0-2.678,1.973-4.849,4.405-4.849
			c2.428,0,4.401,2.17,4.401,4.849c0,2.679-1.974,4.85-4.401,4.85C26.302,37.466,24.329,35.296,24.329,32.616z"/>
		<path fill="#EF8205" d="M34.503,39.332c0,0.468,0.345,0.845,0.769,0.845c0.422,0,0.768-0.377,0.768-0.845
			c0-0.466-0.346-0.846-0.768-0.846C34.848,38.486,34.503,38.866,34.503,39.332L34.503,39.332z M32.936,39.332
			c0-1.419,1.045-2.571,2.335-2.571c1.288,0,2.336,1.152,2.336,2.571s-1.048,2.57-2.336,2.57
			C33.981,41.902,32.936,40.752,32.936,39.332z"/>
		<ellipse fill="#EF8205" cx="28.807" cy="32.616" rx="1.201" ry="1.323"/>
	</g>
	<g transform="matrix(0.8473 0 0 1 53.4985 19.3809)">
		<g>
			<text transform="matrix(1 0 0 1 -36.3148 34.7329)" enable-background="new    "><tspan x="0" y="0" fill="#212120" font-family="'AdobeSongStd-Light-GBpc-EUC-H'" font-size="5.9437">零知</tspan><tspan x="11.887" y="0" fill="#212120" font-family="'ArialMT'" font-size="5.9437">-ESP32</tspan></text>
		</g>
	</g>
	<g>
		<ellipse id="_x30_.1.0.96.0.3.10" fill="#474746" cx="29.119" cy="46.663" rx="0.554" ry="0.408"/>
		<path id="_x30_.1.0.96.0.3.11" fill="#474746" d="M27.74,46.255c0.306,0,0.554,0.183,0.554,0.408s-0.25,0.408-0.554,0.408
			c-0.304,0-0.551-0.183-0.551-0.408S27.437,46.255,27.74,46.255z"/>
		<path id="_x30_.1.0.96.0.3.12" fill="#474746" d="M26.363,46.255c0.306,0,0.553,0.183,0.553,0.408s-0.247,0.408-0.553,0.408
			c-0.306,0-0.553-0.183-0.553-0.408S26.058,46.255,26.363,46.255z"/>
		<path id="_x30_.1.0.96.0.3.13" fill="#474746" d="M24.982,46.255c0.306,0,0.553,0.183,0.553,0.408s-0.248,0.408-0.553,0.408
			c-0.304,0-0.553-0.183-0.553-0.408C24.43,46.438,24.679,46.255,24.982,46.255z"/>
		<path id="_x30_.1.0.96.0.5.0" fill="#474746" d="M23.472,56.879c0.303,0,0.552,0.182,0.552,0.408s-0.249,0.408-0.552,0.408
			c-0.306,0-0.555-0.183-0.555-0.408S23.166,56.879,23.472,56.879z"/>
		<path id="_x30_.1.0.96.0.5.1" fill="#474746" d="M22.179,56.676c0.303,0,0.55,0.183,0.55,0.408c0,0.226-0.247,0.408-0.55,0.408
			c-0.309,0-0.556-0.182-0.556-0.408S21.871,56.676,22.179,56.676z"/>
		<ellipse id="_x30_.1.0.96.0.5.2" fill="#474746" cx="20.95" cy="56.711" rx="0.555" ry="0.408"/>
		<path id="_x30_.1.0.96.0.5.3" fill="#474746" d="M19.841,55.769c0.306,0,0.552,0.184,0.552,0.408c0,0.226-0.247,0.409-0.552,0.409
			c-0.306,0-0.552-0.183-0.552-0.409C19.289,55.953,19.535,55.769,19.841,55.769z"/>
		<ellipse id="_x30_.1.0.96.0.5.4" fill="#474746" cx="18.881" cy="55.505" rx="0.552" ry="0.408"/>
		<path id="_x30_.1.0.96.0.5.5" fill="#474746" d="M18.102,54.305c0.305,0,0.551,0.183,0.551,0.409c0,0.225-0.245,0.408-0.551,0.408
			c-0.307,0-0.554-0.183-0.554-0.408C17.549,54.487,17.796,54.305,18.102,54.305z"/>
		<ellipse id="_x30_.1.0.96.0.5.6" fill="#474746" cx="17.533" cy="53.831" rx="0.551" ry="0.408"/>
		<path id="_x30_.1.0.96.0.5.7" fill="#474746" d="M17.191,52.48c0.302,0,0.551,0.183,0.551,0.408s-0.249,0.408-0.551,0.408
			c-0.308,0-0.553-0.183-0.553-0.408C16.639,52.662,16.884,52.48,17.191,52.48z"/>
		<path id="_x30_.1.0.96.0.5.8" fill="#474746" d="M17.086,51.504c0.307,0,0.552,0.183,0.552,0.409c0,0.225-0.245,0.408-0.552,0.408
			c-0.305,0-0.552-0.183-0.552-0.408S16.781,51.504,17.086,51.504z"/>
		<path id="_x30_.1.0.96.0.5.9" fill="#474746" d="M17.281,50.535c0.302,0.024,0.523,0.225,0.491,0.447
			c-0.031,0.225-0.305,0.389-0.606,0.365c-0.305-0.024-0.521-0.224-0.492-0.45C16.706,50.674,16.978,50.511,17.281,50.535z"/>
		<path id="_x30_.1.0.96.0.5.10" fill="#474746" d="M17.757,49.611c0.293,0.064,0.462,0.292,0.374,0.506
			c-0.088,0.218-0.396,0.341-0.686,0.277c-0.293-0.063-0.461-0.291-0.374-0.508C17.154,49.672,17.466,49.548,17.757,49.611z"/>
		<path id="_x30_.1.0.96.0.5.11" fill="#474746" d="M18.201,48.725c0.305,0,0.552,0.182,0.552,0.408
			c0,0.224-0.247,0.407-0.552,0.407c-0.307,0-0.554-0.183-0.554-0.407C17.647,48.907,17.894,48.725,18.201,48.725z"/>
		<path id="_x30_.1.0.96.0.5.12" fill="#474746" d="M19.007,47.949c0.305,0,0.553,0.182,0.553,0.409
			c0,0.224-0.248,0.407-0.553,0.407c-0.305,0-0.554-0.183-0.554-0.407C18.453,48.131,18.702,47.949,19.007,47.949z"/>
		<path id="_x30_.1.0.96.0.5.13" fill="#474746" d="M19.991,47.295c0.303,0,0.553,0.183,0.553,0.408s-0.25,0.409-0.553,0.409
			c-0.306,0-0.554-0.183-0.554-0.409S19.685,47.295,19.991,47.295z"/>
		<path id="_x30_.1.0.96.0.5.14" fill="#474746" d="M21.123,46.784c0.303,0,0.551,0.182,0.551,0.408S21.426,47.6,21.123,47.6
			c-0.308,0-0.554-0.183-0.554-0.408S20.815,46.784,21.123,46.784z"/>
		<ellipse id="_x30_.1.0.96.0.5.15" fill="#474746" cx="22.357" cy="46.841" rx="0.552" ry="0.408"/>
		<ellipse id="_x30_.1.0.96.0.5.16" fill="#474746" cx="23.659" cy="46.663" rx="0.551" ry="0.408"/>
		<path id="_x30_.1.0.96.0.5.17" fill="#474746" d="M24.982,46.255c0.306,0,0.553,0.183,0.553,0.408s-0.248,0.408-0.553,0.408
			c-0.304,0-0.553-0.183-0.553-0.408C24.43,46.438,24.679,46.255,24.982,46.255z"/>
		<ellipse id="_x30_.1.0.96.0.6.10" fill="#474746" cx="29.119" cy="57.391" rx="0.554" ry="0.408"/>
		<path id="_x30_.1.0.96.0.6.11" fill="#474746" d="M27.74,56.983c0.306,0,0.554,0.183,0.554,0.409S28.044,57.8,27.74,57.8
			c-0.304,0-0.551-0.182-0.551-0.408S27.437,56.983,27.74,56.983z"/>
		<path id="_x30_.1.0.96.0.6.12" fill="#474746" d="M26.363,56.983c0.306,0,0.553,0.183,0.553,0.409S26.669,57.8,26.363,57.8
			c-0.306,0-0.553-0.182-0.553-0.408S26.058,56.983,26.363,56.983z"/>
		<path id="_x30_.1.0.96.0.6.13" fill="#474746" d="M24.982,56.983c0.306,0,0.553,0.183,0.553,0.409S25.287,57.8,24.982,57.8
			c-0.304,0-0.553-0.182-0.553-0.408C24.43,57.166,24.679,56.983,24.982,56.983z"/>
		<path id="_x30_.1.0.96.0.3.0_1_" fill="#474746" d="M48.433,46.255c0.306,0,0.555,0.183,0.555,0.408s-0.249,0.408-0.555,0.408
			c-0.307,0-0.555-0.183-0.555-0.408C47.88,46.438,48.126,46.255,48.433,46.255z"/>
		<ellipse id="_x30_.1.0.96.0.3.1_1_" fill="#474746" cx="47.055" cy="46.663" rx="0.552" ry="0.408"/>
		<path id="_x30_.1.0.96.0.3.2_1_" fill="#474746" d="M45.673,46.255c0.309,0,0.556,0.183,0.556,0.408s-0.247,0.408-0.556,0.408
			c-0.305,0-0.551-0.183-0.551-0.408S45.369,46.255,45.673,46.255z"/>
		<path id="_x30_.1.0.96.0.3.3_1_" fill="#474746" d="M44.294,46.255c0.308,0,0.555,0.183,0.555,0.408s-0.25,0.408-0.555,0.408
			c-0.307,0-0.555-0.183-0.555-0.408S43.988,46.255,44.294,46.255z"/>
		<ellipse id="_x30_.1.0.96.0.3.4_1_" fill="#474746" cx="42.916" cy="46.663" rx="0.556" ry="0.408"/>
		<ellipse id="_x30_.1.0.96.0.3.5_1_" fill="#474746" cx="41.537" cy="46.663" rx="0.553" ry="0.408"/>
		<path id="_x30_.1.0.96.0.3.6_1_" fill="#474746" d="M40.158,46.255c0.305,0,0.555,0.183,0.555,0.408s-0.25,0.408-0.555,0.408
			s-0.553-0.183-0.553-0.408S39.853,46.255,40.158,46.255z"/>
		<ellipse id="_x30_.1.0.96.0.3.7_1_" fill="#474746" cx="38.778" cy="46.663" rx="0.552" ry="0.408"/>
		<ellipse id="_x30_.1.0.96.0.3.8_1_" fill="#474746" cx="37.397" cy="46.663" rx="0.554" ry="0.408"/>
		<ellipse id="_x30_.1.0.96.0.3.9_1_" fill="#474746" cx="36.019" cy="46.663" rx="0.554" ry="0.408"/>
		<path id="_x30_.1.0.96.0.3.10_1_" fill="#474746" d="M34.639,46.255c0.304,0,0.554,0.183,0.554,0.408s-0.25,0.408-0.554,0.408
			c-0.307,0-0.551-0.183-0.551-0.408S34.332,46.255,34.639,46.255z"/>
		<ellipse id="_x30_.1.0.96.0.3.11_1_" fill="#474746" cx="33.26" cy="46.663" rx="0.553" ry="0.408"/>
		<path id="_x30_.1.0.96.0.3.12_1_" fill="#474746" d="M31.88,46.255c0.306,0,0.554,0.183,0.554,0.408s-0.248,0.408-0.554,0.408
			c-0.305,0-0.552-0.183-0.552-0.408C31.327,46.438,31.575,46.255,31.88,46.255z"/>
		<path id="_x30_.1.0.96.0.3.13_1_" fill="#474746" d="M30.503,46.255c0.305,0,0.55,0.183,0.55,0.408s-0.245,0.408-0.55,0.408
			c-0.307,0-0.555-0.183-0.555-0.408S30.196,46.255,30.503,46.255z"/>
		<path id="_x30_.1.0.96.0.4.0_1_" fill="#474746" d="M48.488,56.947c0.307,0,0.555,0.184,0.555,0.409s-0.25,0.407-0.555,0.407
			c-0.302,0-0.55-0.183-0.55-0.407S48.186,56.947,48.488,56.947z"/>
		<path id="_x30_.1.0.96.0.4.1_1_" fill="#474746" d="M49.8,56.755c0.307,0,0.555,0.184,0.555,0.408S50.106,57.57,49.8,57.57
			c-0.303,0-0.551-0.183-0.551-0.407S49.498,56.755,49.8,56.755z"/>
		<ellipse id="_x30_.1.0.96.0.4.2_1_" fill="#474746" cx="51.044" cy="56.798" rx="0.555" ry="0.408"/>
		<ellipse id="_x30_.1.0.96.0.4.3_1_" fill="#474746" cx="52.175" cy="56.271" rx="0.552" ry="0.408"/>
		<ellipse id="_x30_.1.0.96.0.4.4_1_" fill="#474746" cx="53.158" cy="55.599" rx="0.551" ry="0.408"/>
		<path id="_x30_.1.0.96.0.4.5_1_" fill="#474746" d="M53.957,54.398c0.301,0,0.551,0.182,0.551,0.408
			c0,0.225-0.25,0.407-0.551,0.407c-0.307,0-0.554-0.183-0.554-0.407C53.402,54.581,53.65,54.398,53.957,54.398z"/>
		<ellipse id="_x30_.1.0.96.0.4.6_1_" fill="#474746" cx="54.542" cy="53.919" rx="0.553" ry="0.407"/>
		<ellipse id="_x30_.1.0.96.0.4.7_1_" fill="#474746" cx="54.901" cy="52.967" rx="0.55" ry="0.407"/>
		<ellipse id="_x30_.1.0.96.0.4.8_1_" fill="#474746" cx="55.016" cy="51.982" rx="0.551" ry="0.407"/>
		<ellipse id="_x30_.1.0.96.0.4.9_1_" fill="#474746" cx="54.887" cy="50.999" rx="0.551" ry="0.407"/>
		<path id="_x30_.1.0.96.0.4.10_1_" fill="#474746" d="M54.511,49.642c0.306,0,0.554,0.183,0.554,0.408
			c0,0.226-0.249,0.408-0.554,0.408s-0.551-0.182-0.551-0.408C53.96,49.825,54.207,49.642,54.511,49.642z"/>
		<ellipse id="_x30_.1.0.96.0.4.11_1_" fill="#474746" cx="53.914" cy="49.168" rx="0.551" ry="0.407"/>
		<ellipse id="_x30_.1.0.96.0.4.12_1_" fill="#474746" cx="53.103" cy="48.381" rx="0.551" ry="0.408"/>
		<ellipse id="_x30_.1.0.96.0.4.13_1_" fill="#474746" cx="52.11" cy="47.719" rx="0.556" ry="0.408"/>
		<path id="_x30_.1.0.96.0.4.14_1_" fill="#474746" d="M50.972,46.793c0.305,0,0.553,0.182,0.553,0.407
			c0,0.226-0.249,0.408-0.553,0.408c-0.305,0-0.551-0.182-0.551-0.408C50.421,46.975,50.667,46.793,50.972,46.793z"/>
		<path id="_x30_.1.0.96.0.4.15_1_" fill="#474746" d="M49.722,46.436c0.309,0,0.555,0.183,0.555,0.409
			c0,0.225-0.246,0.408-0.555,0.408c-0.305,0-0.553-0.183-0.553-0.408C49.169,46.618,49.417,46.436,49.722,46.436z"/>
		<path id="_x30_.1.0.96.0.4.16_1_" fill="#474746" d="M48.41,46.255c0.303,0,0.551,0.183,0.551,0.408
			c0,0.226-0.248,0.408-0.551,0.408c-0.309,0-0.556-0.183-0.556-0.408S48.101,46.255,48.41,46.255z"/>
		<path id="_x30_.1.0.96.0.4.17_1_" fill="#474746" d="M47.068,46.255c0.307,0,0.551,0.183,0.551,0.408s-0.244,0.408-0.551,0.408
			c-0.306,0-0.551-0.183-0.551-0.408S46.763,46.255,47.068,46.255z"/>
		<path id="_x30_.1.0.96.0.6.0_1_" fill="#474746" d="M48.433,56.983c0.306,0,0.555,0.183,0.555,0.409S48.739,57.8,48.433,57.8
			c-0.307,0-0.555-0.182-0.555-0.408C47.88,57.166,48.126,56.983,48.433,56.983z"/>
		<ellipse id="_x30_.1.0.96.0.6.1_1_" fill="#474746" cx="47.055" cy="57.391" rx="0.552" ry="0.408"/>
		<path id="_x30_.1.0.96.0.6.2_1_" fill="#474746" d="M45.673,56.983c0.309,0,0.556,0.183,0.556,0.409S45.982,57.8,45.673,57.8
			c-0.305,0-0.551-0.182-0.551-0.408S45.369,56.983,45.673,56.983z"/>
		<path id="_x30_.1.0.96.0.6.3_1_" fill="#474746" d="M44.294,56.983c0.308,0,0.555,0.183,0.555,0.409s-0.25,0.408-0.555,0.408
			c-0.307,0-0.555-0.182-0.555-0.408S43.988,56.983,44.294,56.983z"/>
		<ellipse id="_x30_.1.0.96.0.6.4_1_" fill="#474746" cx="42.916" cy="57.391" rx="0.556" ry="0.408"/>
		<ellipse id="_x30_.1.0.96.0.6.5_1_" fill="#474746" cx="41.537" cy="57.391" rx="0.553" ry="0.408"/>
		<path id="_x30_.1.0.96.0.6.6_1_" fill="#474746" d="M40.158,56.983c0.305,0,0.555,0.183,0.555,0.409s-0.25,0.408-0.555,0.408
			s-0.553-0.182-0.553-0.408S39.853,56.983,40.158,56.983z"/>
		<ellipse id="_x30_.1.0.96.0.6.7_1_" fill="#474746" cx="38.778" cy="57.391" rx="0.552" ry="0.408"/>
		<ellipse id="_x30_.1.0.96.0.6.8_1_" fill="#474746" cx="37.397" cy="57.391" rx="0.554" ry="0.408"/>
		<ellipse id="_x30_.1.0.96.0.6.9_1_" fill="#474746" cx="36.019" cy="57.391" rx="0.554" ry="0.408"/>
		<path id="_x30_.1.0.96.0.6.10_1_" fill="#474746" d="M34.639,56.983c0.304,0,0.554,0.183,0.554,0.409s-0.25,0.408-0.554,0.408
			c-0.307,0-0.551-0.182-0.551-0.408S34.332,56.983,34.639,56.983z"/>
		<ellipse id="_x30_.1.0.96.0.6.11_1_" fill="#474746" cx="33.26" cy="57.391" rx="0.553" ry="0.408"/>
		<path id="_x30_.1.0.96.0.6.12_1_" fill="#474746" d="M31.88,56.983c0.306,0,0.554,0.183,0.554,0.409S32.186,57.8,31.88,57.8
			c-0.305,0-0.552-0.182-0.552-0.408C31.327,57.166,31.575,56.983,31.88,56.983z"/>
		<path id="_x30_.1.0.96.0.6.13_1_" fill="#474746" d="M30.503,56.983c0.305,0,0.55,0.183,0.55,0.409s-0.245,0.408-0.55,0.408
			c-0.307,0-0.555-0.182-0.555-0.408S30.196,56.983,30.503,56.983z"/>
	</g>
	<g>
		<rect x="36.117" y="100.149" fill="#534740" width="2.559" height="5.67"/>
		<rect x="38.654" y="100.151" opacity="0.2" fill="#040000" enable-background="new    " width="0.021" height="5.67"/>
		<rect x="36.117" y="100.151" opacity="0.2" fill="#FFFFFF" enable-background="new    " width="0.031" height="5.67"/>
		<path fill="#DCDCDB" d="M36.117,100.971L36.117,100.971L36.117,100.971v0.064l0,0c0.171,0.061,0.813,0.1,1.002,0.1
			c0.199,0,1.379-0.035,1.561-0.1v-0.891h-2.563V100.971z"/>
		<path fill="#DCDCDB" d="M36.188,104.932h-0.071v0.889h2.561v-0.889c-0.184-0.063-1.354-0.139-1.559-0.139
			C36.884,104.795,36.393,104.848,36.188,104.932z"/>
		<rect x="38.644" y="104.932" opacity="0.15" fill="#040000" enable-background="new    " width="0.027" height="0.889"/>
		<rect x="36.117" y="104.932" opacity="0.5" fill="#FFFFFF" enable-background="new    " width="0.031" height="0.889"/>
		<path fill="#CDC18D" d="M38.675,100.149v0.891"/>
		<rect x="38.644" y="100.149" opacity="0.15" fill="#040000" enable-background="new    " width="0.027" height="0.889"/>
		<rect x="36.117" y="100.149" opacity="0.5" fill="#FFFFFF" enable-background="new    " width="0.03" height="0.89"/>
		<line fill="none" x1="38.675" y1="105.278" x2="38.675" y2="105.278"/>
		<rect x="36.125" y="100.137" opacity="0.1" fill="#040000" enable-background="new    " width="2.542" height="0.115"/>
		<rect x="36.125" y="105.704" opacity="0.2" fill="#FFFFFF" enable-background="new    " width="2.542" height="0.115"/>
	</g>
	<g>
		<rect x="47.626" y="100.157" fill="#534740" width="2.559" height="5.67"/>
		<rect x="50.162" y="100.159" opacity="0.2" fill="#040000" enable-background="new    " width="0.021" height="5.671"/>
		<rect x="47.625" y="100.157" opacity="0.2" fill="#FFFFFF" enable-background="new    " width="0.031" height="5.673"/>
		<path fill="#DCDCDB" d="M47.625,100.977L47.625,100.977L47.625,100.977v0.066l0,0c0.172,0.059,0.813,0.1,1.002,0.1
			c0.199,0,1.379-0.035,1.561-0.1v-0.891h-2.563V100.977z"/>
		<path fill="#DCDCDB" d="M47.697,104.94h-0.072v0.89h2.562v-0.89c-0.185-0.063-1.354-0.139-1.56-0.139
			C48.392,104.801,47.901,104.856,47.697,104.94z"/>
		<rect x="50.154" y="104.94" opacity="0.15" fill="#040000" enable-background="new    " width="0.026" height="0.89"/>
		<rect x="47.626" y="104.94" opacity="0.5" fill="#FFFFFF" enable-background="new    " width="0.031" height="0.89"/>
		<path fill="#CDC18D" d="M50.184,100.155v0.892"/>
		<rect x="50.154" y="100.157" opacity="0.15" fill="#040000" enable-background="new    " width="0.026" height="0.888"/>
		<rect x="47.626" y="100.155" opacity="0.5" fill="#FFFFFF" enable-background="new    " width="0.029" height="0.892"/>
		<line fill="none" x1="50.183" y1="105.284" x2="50.183" y2="105.284"/>
		<rect x="47.634" y="100.143" opacity="0.1" fill="#040000" enable-background="new    " width="2.542" height="0.117"/>
		<rect x="47.634" y="105.71" opacity="0.2" fill="#FFFFFF" enable-background="new    " width="2.542" height="0.116"/>
	</g>
	<g>
		<circle fill="none" stroke="#988E6B" stroke-width="1.224" cx="67.304" cy="16.151" r="2.052"/>
		<circle fill="#FCFCFC" cx="67.303" cy="16.151" r="1.478"/>
	</g>
	<g>
		<circle fill="none" stroke="#988E6B" stroke-width="1.224" cx="67.304" cy="31.295" r="2.052"/>
		<circle fill="#FCFCFC" cx="67.303" cy="31.295" r="1.478"/>
	</g>
	<g>
		<circle fill="none" stroke="#988E6B" stroke-width="1.224" cx="67.304" cy="38.721" r="2.052"/>
		<circle fill="#FCFCFC" cx="67.303" cy="38.721" r="1.478"/>
	</g>
	<g>
		<circle fill="none" stroke="#988E6B" stroke-width="1.224" cx="67.304" cy="45.517" r="2.052"/>
		<circle fill="#FCFCFC" cx="67.303" cy="45.517" r="1.478"/>
	</g>
	<g>
		<circle fill="none" stroke="#988E6B" stroke-width="1.224" cx="67.304" cy="52.321" r="2.052"/>
		<circle fill="#FCFCFC" cx="67.303" cy="52.321" r="1.478"/>
	</g>
	<g>
		<circle fill="none" stroke="#988E6B" stroke-width="1.224" cx="67.304" cy="60.659" r="2.052"/>
		<circle fill="#FCFCFC" cx="67.303" cy="60.659" r="1.478"/>
	</g>
	<g>
		<circle fill="none" stroke="#988E6B" stroke-width="1.224" cx="67.304" cy="67.08" r="2.052"/>
		<circle fill="#FCFCFC" cx="67.303" cy="67.08" r="1.478"/>
	</g>
	<g>
		<circle fill="none" stroke="#988E6B" stroke-width="1.224" cx="67.304" cy="74.833" r="2.052"/>
		<circle fill="#FCFCFC" cx="67.303" cy="74.833" r="1.478"/>
	</g>
	<g>
		<circle fill="none" stroke="#988E6B" stroke-width="1.224" cx="67.304" cy="81.701" r="2.052"/>
		<circle fill="#FCFCFC" cx="67.303" cy="81.701" r="1.478"/>
	</g>
	<g>
		<circle fill="none" stroke="#988E6B" stroke-width="1.224" cx="67.304" cy="89.458" r="2.052"/>
		<circle fill="#FCFCFC" cx="67.303" cy="89.458" r="1.478"/>
	</g>
	<g>
		<circle fill="none" stroke="#988E6B" stroke-width="1.224" cx="67.304" cy="96.866" r="2.052"/>
		<circle fill="#FCFCFC" cx="67.303" cy="96.866" r="1.478"/>
	</g>
	<g>
		<circle fill="none" stroke="#988E6B" stroke-width="1.224" cx="67.304" cy="103.857" r="2.052"/>
		<circle fill="#FCFCFC" cx="67.303" cy="103.857" r="1.478"/>
	</g>
	<g>
		<circle fill="none" stroke="#988E6B" stroke-width="1.224" cx="67.304" cy="111.061" r="2.053"/>
		<circle fill="#FCFCFC" cx="67.303" cy="111.06" r="1.478"/>
	</g>
	<g>
		<circle fill="none" stroke="#988E6B" stroke-width="1.224" cx="67.304" cy="118.258" r="2.052"/>
		<circle fill="#FCFCFC" cx="67.303" cy="118.257" r="1.478"/>
	</g>
	<g>
		<circle fill="none" stroke="#988E6B" stroke-width="1.224" cx="67.304" cy="23.808" r="2.052"/>
		<circle fill="#FCFCFC" cx="67.303" cy="23.808" r="1.478"/>
	</g>
	<g>
		<circle fill="none" stroke="#988E6B" stroke-width="1.224" cx="4.157" cy="16.151" r="2.052"/>
		<circle fill="#FCFCFC" cx="4.156" cy="16.151" r="1.478"/>
	</g>
	<g>
		<circle fill="none" stroke="#988E6B" stroke-width="1.224" cx="4.157" cy="32.469" r="2.052"/>
		<circle fill="#FCFCFC" cx="4.156" cy="32.469" r="1.478"/>
	</g>
	<g>
		<circle fill="none" stroke="#988E6B" stroke-width="1.224" cx="4.157" cy="39.896" r="2.052"/>
		<circle fill="#FCFCFC" cx="4.156" cy="39.896" r="1.478"/>
	</g>
	<g>
		<circle fill="none" stroke="#988E6B" stroke-width="1.224" cx="4.157" cy="46.691" r="2.052"/>
		<circle fill="#FCFCFC" cx="4.156" cy="46.691" r="1.478"/>
	</g>
	<g>
		<circle fill="none" stroke="#988E6B" stroke-width="1.224" cx="4.157" cy="53.495" r="2.052"/>
		<circle fill="#FCFCFC" cx="4.156" cy="53.495" r="1.478"/>
	</g>
	<g>
		<circle fill="none" stroke="#988E6B" stroke-width="1.224" cx="4.157" cy="61.833" r="2.052"/>
		<circle fill="#FCFCFC" cx="4.156" cy="61.833" r="1.478"/>
	</g>
	<g>
		<circle fill="none" stroke="#988E6B" stroke-width="1.224" cx="4.157" cy="68.254" r="2.052"/>
		<circle fill="#FCFCFC" cx="4.156" cy="68.254" r="1.478"/>
	</g>
	<g>
		<circle fill="none" stroke="#988E6B" stroke-width="1.224" cx="4.157" cy="76.007" r="2.052"/>
		<circle fill="#FCFCFC" cx="4.156" cy="76.007" r="1.478"/>
	</g>
	<g>
		<circle fill="none" stroke="#988E6B" stroke-width="1.224" cx="4.157" cy="82.875" r="2.052"/>
		<circle fill="#FCFCFC" cx="4.156" cy="82.875" r="1.478"/>
	</g>
	<g>
		<circle fill="none" stroke="#988E6B" stroke-width="1.224" cx="4.157" cy="90.632" r="2.052"/>
		<circle fill="#FCFCFC" cx="4.156" cy="90.632" r="1.478"/>
	</g>
	<g>
		<circle fill="none" stroke="#988E6B" stroke-width="1.224" cx="4.157" cy="98.041" r="2.052"/>
		<circle fill="#FCFCFC" cx="4.156" cy="98.04" r="1.478"/>
	</g>
	<g>
		<circle fill="none" stroke="#988E6B" stroke-width="1.224" cx="4.157" cy="105.031" r="2.052"/>
		<circle fill="#FCFCFC" cx="4.156" cy="105.031" r="1.478"/>
	</g>
	<g>
		<circle fill="none" stroke="#988E6B" stroke-width="1.224" cx="4.157" cy="112.234" r="2.052"/>
		<circle fill="#FCFCFC" cx="4.156" cy="112.233" r="1.479"/>
	</g>
	<g>
		<circle fill="none" stroke="#988E6B" stroke-width="1.224" cx="4.157" cy="119.432" r="2.052"/>
		<circle fill="#FCFCFC" cx="4.156" cy="119.431" r="1.478"/>
	</g>
	<g>
		<circle fill="none" stroke="#988E6B" stroke-width="1.224" cx="4.157" cy="24.983" r="2.052"/>
		<circle fill="#FCFCFC" cx="4.156" cy="24.983" r="1.478"/>
	</g>
	<g transform="translate(-325.58571,-623.71933)">
		<g>
			<g id="layer1">
				<g transform="translate(333.68571,610.31933)">
					<g>
						<g id="g802">
							<g id="g804">
								<g id="g806">
									<rect id="rect808" x="24.339" y="136.942" fill="#666666" width="0.752" height="0.525"/>
									<rect id="rect810" x="24.339" y="136.942" fill="#999999" width="0.075" height="0.375"/>
								</g>
								<g id="g812">
									<rect id="rect814" x="25.767" y="136.942" fill="#666666" width="0.751" height="0.525"/>
									<rect id="rect816" x="25.767" y="136.942" fill="#999999" width="0.075" height="0.375"/>
								</g>
								<g id="g818">
									<rect id="rect820" x="27.12" y="136.942" fill="#666666" width="0.751" height="0.525"/>
									<rect id="rect822" x="27.12" y="136.942" fill="#999999" width="0.075" height="0.375"/>
								</g>
								<g id="g824">
									<rect id="rect826" x="28.546" y="136.942" fill="#666666" width="0.752" height="0.525"/>
									<rect id="rect828" x="28.546" y="136.942" fill="#999999" width="0.075" height="0.375"/>
								</g>
								<g id="g830">
									<rect id="rect832" x="29.899" y="136.942" fill="#666666" width="0.752" height="0.525"/>
									<rect id="rect834" x="29.899" y="136.942" fill="#999999" width="0.075" height="0.375"/>
								</g>
								<g id="g836">
									<polygon id="polygon838" fill="#B3B3B3" points="20.434,150.012 20.434,137.242 34.631,137.242 34.631,150.012 									
										"/>
									<rect id="rect840" x="34.781" y="142.276" fill="#B7B7B7" width="1.353" height="2.253"/>
									<rect id="rect842" x="18.856" y="142.276" fill="#B7B7B7" width="1.353" height="2.253"/>
									<rect id="rect844" x="20.434" y="137.242" fill="#CCCCCC" width="14.122" height="0.074"/>
									<rect id="rect846" x="23.664" y="137.242" fill="#333333" width="7.737" height="12.771"/>
									<rect id="rect848" x="19.532" y="149.186" fill="#B3B3B3" width="0.751" height="0.826"/>
									<rect id="rect850" x="19.757" y="149.186" fill="#F2F2F2" width="0.451" height="0.826"/>
									<rect id="rect852" x="34.781" y="149.186" fill="#B3B3B3" width="0.752" height="0.826"/>
									<rect id="rect854" x="34.781" y="149.186" fill="#999999" width="0.451" height="0.826"/>
									<path id="path856" fill="#CCCCCC" d="M20.283,137.692l0.151-0.449h1.878c0,0-1.729,0.074-1.803,0.225
										c-0.075,0.15,0.074,0.227,0.074,0.227h-0.3V137.692z"/>
									<path id="path858" fill="#CCCCCC" d="M34.781,137.692l-0.149-0.449h-1.878c0,0,1.729,0.074,1.803,0.225
										c0.075,0.151-0.074,0.227-0.074,0.227h0.299V137.692z"/>
									<path id="path860" fill="#E6E6E6" d="M32.227,137.692v0.752h-1.201v-1.201h-0.375v0.449h-6.312v-0.449h-0.375v1.201h-1.202
										v-0.826h-2.479v12.396h14.499v-12.32h-2.555V137.692z M23.964,147.684v0.602h-1.202v-0.678
										c-0.301-0.225-0.525-0.6-0.525-0.977c0-0.451,0.15-0.826,0.525-1.052l0,0v-3.381h1.202v3.381
										c0.375,0.226,0.602,0.601,0.602,1.052S24.339,147.458,23.964,147.684z M32.152,147.684v0.602h-1.203v-0.678
										c-0.299-0.225-0.523-0.6-0.523-0.977c0-0.451,0.148-0.826,0.523-1.052l0,0v-3.381h1.203v3.381
										c0.375,0.226,0.602,0.601,0.602,1.052C32.753,147.082,32.527,147.458,32.152,147.684z"/>
									<polygon id="polygon862" fill="#F2F2F2" points="20.283,150.012 20.283,137.692 21.41,137.692 20.584,150.012 									"/>
									<polygon id="polygon864" fill="#999999" points="34.33,141.749 33.88,137.692 34.781,137.692 34.781,150.012 									"/>
									<rect id="rect866" x="22.762" y="142.276" fill="#CCCCCC" width="1.202" height="0.074"/>
									<rect id="rect868" x="30.949" y="142.276" fill="#CCCCCC" width="1.203" height="0.074"/>
									<rect id="rect870" x="20.96" y="149.036" fill="#B3B3B3" width="13.071" height="0.524"/>
									<rect id="rect872" x="20.96" y="149.486" fill="#CCCCCC" width="13.071" height="0.525"/>
								</g>
							</g>
						</g>
					</g>
				</g>
			</g>
		</g>
	</g>
	<g transform="matrix(4.371139e-008 -1 1 4.371139e-008 45.7905 43.6748)">
		<g>
			<text transform="matrix(1 0 0 1 -34.7319 -34.7339)" fill="#FFFFFF" font-family="'ArialMT'" font-size="2.5">D26</text>
		</g>
	</g>
	<g transform="matrix(4.371139e-008 -1 1 4.371139e-008 45.7905 36.5264)">
		<g>
			<text transform="matrix(1 0 0 1 -34.7319 -34.7339)" fill="#FFFFFF" font-family="'ArialMT'" font-size="2.5">D25</text>
		</g>
	</g>
	<g>
		<rect x="39.671" y="78.537" fill="#AEAEAE" width="0.578" height="1.9"/>
		<rect x="40.632" y="78.537" fill="#AEAEAE" width="0.578" height="1.9"/>
		<rect x="41.641" y="78.537" fill="#AEAEAE" width="0.579" height="1.9"/>
		<rect x="42.632" y="78.537" fill="#AEAEAE" width="0.578" height="1.9"/>
		<rect x="43.631" y="78.537" fill="#AEAEAE" width="0.579" height="1.9"/>
		<rect x="44.641" y="78.537" fill="#AEAEAE" width="0.579" height="1.9"/>
		<rect x="45.613" y="78.537" fill="#AEAEAE" width="0.577" height="1.9"/>
		<rect x="46.572" y="78.537" fill="#AEAEAE" width="0.579" height="1.9"/>
		<rect x="47.582" y="78.537" fill="#AEAEAE" width="0.579" height="1.9"/>
		<rect x="48.574" y="78.537" fill="#AEAEAE" width="0.576" height="1.9"/>
		<rect x="49.574" y="78.537" fill="#AEAEAE" width="0.577" height="1.9"/>
		<rect x="36.695" y="81.504" fill="#AEAEAE" width="1.893" height="0.581"/>
		<rect x="36.695" y="82.47" fill="#AEAEAE" width="1.893" height="0.58"/>
		<rect x="36.695" y="83.483" fill="#AEAEAE" width="1.893" height="0.581"/>
		<rect x="36.695" y="84.478" fill="#AEAEAE" width="1.893" height="0.58"/>
		<rect x="36.695" y="85.482" fill="#AEAEAE" width="1.893" height="0.58"/>
		<rect x="36.695" y="86.497" fill="#AEAEAE" width="1.893" height="0.581"/>
		<rect x="36.695" y="87.437" fill="#AEAEAE" width="1.893" height="0.58"/>
		<rect x="36.695" y="88.401" fill="#AEAEAE" width="1.893" height="0.581"/>
		<rect x="36.695" y="89.415" fill="#AEAEAE" width="1.893" height="0.582"/>
		<rect x="36.695" y="90.409" fill="#AEAEAE" width="1.893" height="0.581"/>
		<rect x="36.695" y="91.414" fill="#AEAEAE" width="1.893" height="0.58"/>
		<rect x="49.578" y="93.062" fill="#AEAEAE" width="0.578" height="1.902"/>
		<rect x="48.617" y="93.062" fill="#AEAEAE" width="0.578" height="1.902"/>
		<rect x="47.608" y="93.062" fill="#AEAEAE" width="0.578" height="1.902"/>
		<rect x="46.617" y="93.062" fill="#AEAEAE" width="0.578" height="1.902"/>
		<rect x="45.617" y="93.062" fill="#AEAEAE" width="0.578" height="1.902"/>
		<rect x="44.608" y="93.062" fill="#AEAEAE" width="0.578" height="1.902"/>
		<rect x="43.637" y="93.062" fill="#AEAEAE" width="0.577" height="1.902"/>
		<rect x="42.676" y="93.062" fill="#AEAEAE" width="0.579" height="1.902"/>
		<rect x="41.667" y="93.062" fill="#AEAEAE" width="0.577" height="1.902"/>
		<rect x="40.676" y="93.062" fill="#AEAEAE" width="0.577" height="1.902"/>
		<rect x="39.676" y="93.062" fill="#AEAEAE" width="0.579" height="1.902"/>
		<rect x="51.24" y="91.414" fill="#AEAEAE" width="1.891" height="0.58"/>
		<rect x="51.24" y="90.449" fill="#AEAEAE" width="1.891" height="0.58"/>
		<rect x="51.24" y="89.435" fill="#AEAEAE" width="1.891" height="0.581"/>
		<rect x="51.24" y="88.44" fill="#AEAEAE" width="1.891" height="0.582"/>
		<rect x="51.24" y="87.437" fill="#AEAEAE" width="1.891" height="0.58"/>
		<rect x="51.24" y="86.423" fill="#AEAEAE" width="1.891" height="0.579"/>
		<rect x="51.24" y="85.482" fill="#AEAEAE" width="1.891" height="0.58"/>
		<rect x="51.24" y="84.518" fill="#AEAEAE" width="1.891" height="0.58"/>
		<rect x="51.24" y="83.503" fill="#AEAEAE" width="1.891" height="0.58"/>
		<rect x="51.24" y="82.509" fill="#AEAEAE" width="1.891" height="0.58"/>
		<rect x="51.24" y="81.504" fill="#AEAEAE" width="1.891" height="0.581"/>
		<rect x="38.587" y="80.418" width="12.652" height="12.649"/>
	</g>
	<g>
		<rect x="24.281" y="68.98" opacity="0.15" fill="#040000" enable-background="new    " width="0.019" height="0.551"/>
		<g>
			<path opacity="0.5" fill="#F1F1F1" enable-background="new    " d="M25.743,68.677h-1.537v2.796h1.537V68.677z"/>
			<path fill="#CDC18D" d="M24.205,68.081v0.479h0.323c0.078,0,0.134,0.052,0.166,0.117h1.048V68.05h-1.507h-0.03"/>
			<g>
				<path fill="#CDC18D" d="M24.205,72.098h0.03h1.507v-0.625h-1.306c-0.035,0.063-0.092,0.115-0.17,0.115h-0.061v0.48"/>
			</g>
		</g>
		<rect x="24.217" y="68.14" fill="#DCDCDB" width="0.866" height="3.988"/>
		<rect x="24.237" y="68.735" fill="#F1F1F1" width="1.48" height="2.796"/>
		<polygon fill="#CDC18D" points="24.489,70.965 24.424,71.564 24.876,71.564 24.813,70.965 		"/>
		<polygon fill="#CDC18D" points="25.368,69.329 25.432,68.73 24.979,68.73 25.042,69.329 		"/>
		<path fill="#9A926C" d="M24.637,70.352c0.053,0.168,0.014,0.267-0.035,0.396c-0.037,0.09-0.078,0.203-0.101,0.371h0.035
			c0.022-0.168,0.063-0.279,0.103-0.371c0.049-0.131,0.088-0.225,0.032-0.396H24.637z"/>
		<path fill="#9A926C" d="M24.858,70.073c0.182-0.039,0.264-0.588,0.272-0.925h0.035c-0.008,0.337-0.088,0.89-0.271,0.927
			L24.858,70.073z"/>
		<g>
			<path opacity="0.5" fill="#F1F1F1" enable-background="new    " d="M25.76,68.735h-1.537v2.796h1.537V68.735z"/>
			<path fill="#CDC18D" d="M24.223,68.142v0.478h0.323c0.076,0,0.132,0.052,0.166,0.117h1.048v-0.627h-1.509h-0.028"/>
			<g>
				<path fill="#CDC18D" d="M24.223,72.157h0.028h1.509v-0.625h-1.308c-0.033,0.064-0.091,0.115-0.168,0.115h-0.063v0.48"/>
			</g>
		</g>
	</g>
	<g>
		<rect x="28.923" y="68.723" fill="#534740" width="1.498" height="3.32"/>
		<rect x="30.407" y="68.723" opacity="0.2" fill="#040000" enable-background="new    " width="0.014" height="3.322"/>
		<rect x="28.923" y="68.723" opacity="0.2" fill="#FFFFFF" enable-background="new    " width="0.018" height="3.322"/>
		<path fill="#DCDCDB" d="M28.923,69.203L28.923,69.203L28.923,69.203v0.039l0,0c0.1,0.034,0.477,0.06,0.586,0.06
			c0.117,0,0.809-0.021,0.914-0.06v-0.522h-1.5V69.203z"/>
		<path fill="#DCDCDB" d="M28.964,71.524h-0.041v0.521h1.5v-0.521c-0.107-0.037-0.793-0.081-0.914-0.081
			C29.372,71.444,29.085,71.475,28.964,71.524z"/>
		<rect x="30.403" y="71.524" opacity="0.15" fill="#040000" enable-background="new    " width="0.016" height="0.521"/>
		<rect x="28.923" y="71.524" opacity="0.5" fill="#FFFFFF" enable-background="new    " width="0.018" height="0.521"/>
		<path fill="#CDC18D" d="M30.421,68.721v0.521"/>
		<rect x="30.403" y="68.723" opacity="0.15" fill="#040000" enable-background="new    " width="0.016" height="0.52"/>
		<rect x="28.923" y="68.721" opacity="0.5" fill="#FFFFFF" enable-background="new    " width="0.018" height="0.521"/>
		<line fill="none" x1="30.421" y1="71.727" x2="30.421" y2="71.727"/>
		<rect x="28.929" y="68.715" opacity="0.1" fill="#040000" enable-background="new    " width="1.488" height="0.067"/>
		<rect x="28.929" y="71.977" opacity="0.2" fill="#FFFFFF" enable-background="new    " width="1.488" height="0.066"/>
	</g>
	<g>
		<rect x="48.258" y="68.981" opacity="0.15" fill="#040000" enable-background="new    " width="0.019" height="0.55"/>
		<g>
			<path opacity="0.5" fill="#F1F1F1" enable-background="new    " d="M49.72,68.677h-1.537v2.796h1.537V68.677z"/>
			<path fill="#CDC18D" d="M48.182,68.081v0.479h0.323c0.078,0,0.134,0.051,0.166,0.117h1.048V68.05h-1.507h-0.03"/>
			<g>
				<path fill="#CDC18D" d="M48.182,72.098h0.03h1.507v-0.625h-1.306c-0.035,0.063-0.092,0.115-0.17,0.115h-0.061v0.48"/>
			</g>
		</g>
		<rect x="48.195" y="68.14" fill="#DCDCDB" width="0.866" height="3.988"/>
		<rect x="48.214" y="68.736" fill="#F1F1F1" width="1.48" height="2.796"/>
		<polygon fill="#CDC18D" points="48.466,70.965 48.402,71.564 48.854,71.564 48.791,70.965 		"/>
		<polygon fill="#CDC18D" points="49.345,69.329 49.41,68.73 48.957,68.73 49.02,69.329 		"/>
		<path fill="#9A926C" d="M48.615,70.352c0.053,0.168,0.014,0.267-0.035,0.396c-0.037,0.09-0.078,0.203-0.101,0.371h0.035
			c0.022-0.168,0.063-0.279,0.103-0.371c0.049-0.131,0.088-0.225,0.032-0.396H48.615z"/>
		<path fill="#9A926C" d="M48.835,70.073c0.182-0.039,0.264-0.588,0.272-0.926h0.035c-0.008,0.338-0.088,0.891-0.271,0.928
			L48.835,70.073z"/>
		<g>
			<path opacity="0.5" fill="#F1F1F1" enable-background="new    " d="M49.738,68.736h-1.537v2.796h1.537V68.736z"/>
			<path fill="#CDC18D" d="M48.201,68.142v0.477h0.323c0.076,0,0.132,0.053,0.166,0.117h1.048v-0.626h-1.509h-0.028"/>
			<g>
				<path fill="#CDC18D" d="M48.201,72.157h0.028h1.509v-0.625H48.43c-0.033,0.064-0.091,0.115-0.168,0.115h-0.063v0.48"/>
			</g>
		</g>
	</g>
	<g>
		<rect x="32.51" y="68.723" fill="#534740" width="1.498" height="3.32"/>
		<rect x="33.995" y="68.723" opacity="0.2" fill="#040000" enable-background="new    " width="0.014" height="3.322"/>
		<rect x="32.51" y="68.723" opacity="0.2" fill="#FFFFFF" enable-background="new    " width="0.018" height="3.322"/>
		<path fill="#DCDCDB" d="M32.51,69.203L32.51,69.203L32.51,69.203v0.039l0,0c0.1,0.034,0.477,0.06,0.586,0.06
			c0.117,0,0.809-0.021,0.914-0.06v-0.522h-1.5V69.203z"/>
		<path fill="#DCDCDB" d="M32.551,71.524H32.51v0.521h1.5v-0.521c-0.107-0.037-0.793-0.081-0.914-0.081
			C32.959,71.444,32.672,71.475,32.551,71.524z"/>
		<rect x="33.991" y="71.524" opacity="0.15" fill="#040000" enable-background="new    " width="0.016" height="0.521"/>
		<rect x="32.51" y="71.524" opacity="0.5" fill="#FFFFFF" enable-background="new    " width="0.018" height="0.521"/>
		<path fill="#CDC18D" d="M34.008,68.721v0.521"/>
		<rect x="33.991" y="68.723" opacity="0.15" fill="#040000" enable-background="new    " width="0.016" height="0.52"/>
		<rect x="32.51" y="68.721" opacity="0.5" fill="#FFFFFF" enable-background="new    " width="0.018" height="0.521"/>
		<line fill="none" x1="34.008" y1="71.727" x2="34.008" y2="71.727"/>
		<rect x="32.516" y="68.715" opacity="0.1" fill="#040000" enable-background="new    " width="1.488" height="0.067"/>
		<rect x="32.516" y="71.977" opacity="0.2" fill="#FFFFFF" enable-background="new    " width="1.488" height="0.066"/>
	</g>
	<g>
		<rect x="35.945" y="68.723" fill="#534740" width="1.498" height="3.32"/>
		<rect x="37.429" y="68.723" opacity="0.2" fill="#040000" enable-background="new    " width="0.014" height="3.322"/>
		<rect x="35.945" y="68.723" opacity="0.2" fill="#FFFFFF" enable-background="new    " width="0.018" height="3.322"/>
		<path fill="#DCDCDB" d="M35.945,69.202L35.945,69.202L35.945,69.202v0.039l0,0c0.1,0.035,0.477,0.061,0.586,0.061
			c0.117,0,0.809-0.021,0.914-0.061v-0.521h-1.5V69.202z"/>
		<path fill="#DCDCDB" d="M35.986,71.524h-0.041v0.521h1.5v-0.521c-0.107-0.037-0.793-0.082-0.914-0.082
			C36.394,71.444,36.107,71.475,35.986,71.524z"/>
		<rect x="37.425" y="71.524" opacity="0.15" fill="#040000" enable-background="new    " width="0.016" height="0.521"/>
		<rect x="35.945" y="71.524" opacity="0.5" fill="#FFFFFF" enable-background="new    " width="0.018" height="0.521"/>
		<path fill="#CDC18D" d="M37.443,68.721v0.521"/>
		<rect x="37.425" y="68.723" opacity="0.15" fill="#040000" enable-background="new    " width="0.016" height="0.52"/>
		<rect x="35.945" y="68.721" opacity="0.5" fill="#FFFFFF" enable-background="new    " width="0.018" height="0.521"/>
		<line fill="none" x1="37.443" y1="71.727" x2="37.443" y2="71.727"/>
		<rect x="35.951" y="68.715" opacity="0.1" fill="#040000" enable-background="new    " width="1.488" height="0.067"/>
		<rect x="35.951" y="71.977" opacity="0.2" fill="#FFFFFF" enable-background="new    " width="1.488" height="0.066"/>
	</g>
	<g>
		<rect x="39.505" y="68.723" fill="#534740" width="1.498" height="3.32"/>
		<rect x="40.99" y="68.723" opacity="0.2" fill="#040000" enable-background="new    " width="0.014" height="3.322"/>
		<rect x="39.505" y="68.723" opacity="0.2" fill="#FFFFFF" enable-background="new    " width="0.018" height="3.322"/>
		<path fill="#DCDCDB" d="M39.505,69.202L39.505,69.202L39.505,69.202v0.039l0,0c0.1,0.035,0.477,0.061,0.586,0.061
			c0.117,0,0.809-0.021,0.914-0.061v-0.521h-1.5V69.202z"/>
		<path fill="#DCDCDB" d="M39.546,71.524h-0.041v0.521h1.5v-0.521c-0.107-0.037-0.793-0.082-0.914-0.082
			C39.955,71.444,39.667,71.475,39.546,71.524z"/>
		<rect x="40.986" y="71.524" opacity="0.15" fill="#040000" enable-background="new    " width="0.016" height="0.521"/>
		<rect x="39.505" y="71.524" opacity="0.5" fill="#FFFFFF" enable-background="new    " width="0.018" height="0.521"/>
		<path fill="#CDC18D" d="M41.003,68.721v0.521"/>
		<rect x="40.986" y="68.723" opacity="0.15" fill="#040000" enable-background="new    " width="0.016" height="0.52"/>
		<rect x="39.505" y="68.721" opacity="0.5" fill="#FFFFFF" enable-background="new    " width="0.018" height="0.521"/>
		<line fill="none" x1="41.003" y1="71.727" x2="41.003" y2="71.727"/>
		<rect x="39.511" y="68.715" opacity="0.1" fill="#040000" enable-background="new    " width="1.488" height="0.067"/>
		<rect x="39.511" y="71.977" opacity="0.2" fill="#FFFFFF" enable-background="new    " width="1.488" height="0.066"/>
	</g>
	<g>
		<rect x="43.46" y="68.649" fill="#534740" width="1.498" height="3.32"/>
		<rect x="44.945" y="68.649" opacity="0.2" fill="#040000" enable-background="new    " width="0.014" height="3.322"/>
		<rect x="43.46" y="68.649" opacity="0.2" fill="#FFFFFF" enable-background="new    " width="0.018" height="3.322"/>
		<path fill="#DCDCDB" d="M43.46,69.127L43.46,69.127L43.46,69.127v0.039l0,0c0.1,0.035,0.477,0.061,0.586,0.061
			c0.117,0,0.809-0.021,0.914-0.061v-0.521h-1.5V69.127z"/>
		<path fill="#DCDCDB" d="M43.501,71.45H43.46v0.521h1.5V71.45c-0.107-0.037-0.793-0.082-0.914-0.082
			C43.91,71.37,43.623,71.401,43.501,71.45z"/>
		<rect x="44.941" y="71.45" opacity="0.15" fill="#040000" enable-background="new    " width="0.016" height="0.521"/>
		<rect x="43.46" y="71.45" opacity="0.5" fill="#FFFFFF" enable-background="new    " width="0.018" height="0.521"/>
		<path fill="#CDC18D" d="M44.958,68.647v0.521"/>
		<rect x="44.941" y="68.649" opacity="0.15" fill="#040000" enable-background="new    " width="0.016" height="0.52"/>
		<rect x="43.46" y="68.647" opacity="0.5" fill="#FFFFFF" enable-background="new    " width="0.018" height="0.521"/>
		<line fill="none" x1="44.958" y1="71.653" x2="44.958" y2="71.653"/>
		<rect x="43.466" y="68.641" opacity="0.1" fill="#040000" enable-background="new    " width="1.488" height="0.067"/>
		<rect x="43.466" y="71.903" opacity="0.2" fill="#FFFFFF" enable-background="new    " width="1.488" height="0.066"/>
	</g>
</g>
</svg>
