<svg width="16" height="16" viewBox="0 0 16 16" fill="none" xmlns="http://www.w3.org/2000/svg">
<path d="M13.355 3.85509L2.85504 14.3551C2.76026 14.448 2.63281 14.5001 2.50006 14.5001C2.36731 14.5001 2.23986 14.448 2.14508 14.3551C2.0514 14.2607 1.99882 14.1331 1.99882 14.0001C1.99882 13.8671 2.0514 13.7395 2.14508 13.6451L3.82508 11.9651C3.24351 11.8742 2.70645 11.5991 2.29291 11.1802C1.87936 10.7613 1.61116 10.2208 1.52775 9.63811C1.44434 9.05543 1.55012 8.46136 1.82955 7.94328C2.10897 7.4252 2.54728 7.01047 3.08 6.76009C3.20492 6.18251 3.47405 5.64596 3.86232 5.20047C4.25058 4.75498 4.74532 4.41505 5.30042 4.21239C5.85552 4.00972 6.45289 3.9509 7.03686 4.04143C7.62082 4.13196 8.17236 4.36887 8.64004 4.73009C9.01346 4.56809 9.41786 4.48995 9.82475 4.50117C10.2316 4.51239 10.6311 4.6127 10.995 4.79503L12.645 3.14509C12.7392 3.05094 12.8669 2.99805 13 2.99805C13.1332 2.99805 13.2609 3.05094 13.355 3.14509C13.4492 3.23924 13.5021 3.36694 13.5021 3.50009C13.5021 3.63324 13.4492 3.76094 13.355 3.85509V3.85509Z" fill="#7F8C8D"/>
<path d="M14.5 9.25047C14.4987 9.97942 14.2086 10.6782 13.6931 11.1936C13.1777 11.709 12.479 11.9992 11.75 12.0005H6.70996L12.355 6.35547C12.38 6.43042 12.4 6.50547 12.4201 6.58044C13.0153 6.72902 13.5436 7.07272 13.9206 7.55669C14.2976 8.04066 14.5016 8.63699 14.5 9.25047V9.25047Z" fill="#7F8C8D"/>
</svg>
