<svg width="16" height="16" viewBox="0 0 16 16" fill="none" xmlns="http://www.w3.org/2000/svg">
<path d="M12.42 6.58044C12.4 6.50549 12.38 6.43042 12.355 6.35547L11.525 7.18555C11.5575 7.27223 11.6136 7.34811 11.6869 7.40464C11.7603 7.46117 11.8479 7.4961 11.94 7.50549C12.3852 7.55476 12.7947 7.77259 13.0843 8.11428C13.374 8.45597 13.5218 8.89557 13.4975 9.34284C13.4732 9.7901 13.2785 10.2111 12.9536 10.5194C12.6286 10.8276 12.1979 10.9998 11.75 11.0005H7.70996L6.70996 12.0005H11.75C12.421 12.0001 13.0688 11.7545 13.5714 11.3099C14.074 10.8653 14.3969 10.2524 14.4792 9.58644C14.5615 8.92048 14.3977 8.24739 14.0184 7.69379C13.6392 7.14019 13.0708 6.74425 12.42 6.58044V6.58044Z" fill="#7F8C8D"/>
<path d="M13.355 3.14532C13.2606 3.05161 13.133 2.99902 13 2.99902C12.867 2.99902 12.7394 3.05161 12.6451 3.14532L10.995 4.79524C10.6311 4.61291 10.2316 4.5126 9.82472 4.50139C9.41783 4.49017 9.01343 4.56832 8.64002 4.73032C8.17233 4.3691 7.6208 4.13219 7.03684 4.04166C6.45287 3.95114 5.85549 4.00995 5.3004 4.21262C4.7453 4.41529 4.25056 4.75521 3.86229 5.2007C3.47403 5.64619 3.2049 6.18274 3.07997 6.76033C2.54726 7.01071 2.10896 7.42543 1.82954 7.9435C1.55013 8.46157 1.44434 9.05564 1.52775 9.63832C1.61115 10.221 1.87935 10.7615 2.29288 11.1804C2.70641 11.5993 3.24346 11.8744 3.82502 11.9653L2.14502 13.6453C2.05133 13.7397 1.99876 13.8673 1.99876 14.0003C1.99876 14.1333 2.05133 14.2609 2.14502 14.3553C2.23979 14.4482 2.36725 14.5003 2.5 14.5003C2.63275 14.5003 2.7602 14.4482 2.85498 14.3553L13.355 3.85528C13.4487 3.7609 13.5012 3.6333 13.5013 3.50031C13.5013 3.36732 13.4487 3.23972 13.355 3.14532V3.14532ZM4.79006 11.0003H4.25002C3.8356 11.0005 3.43458 10.8535 3.11841 10.5856C2.80224 10.3177 2.59145 9.94623 2.52362 9.5374C2.45578 9.12857 2.53529 8.70893 2.74799 8.35326C2.96069 7.99758 3.29275 7.72898 3.68502 7.59529C3.77434 7.56478 3.85319 7.50962 3.91248 7.43617C3.97176 7.36272 4.00904 7.274 4.02002 7.18025C4.09848 6.57783 4.39334 6.0245 4.84963 5.62341C5.30592 5.22233 5.89251 5.00087 6.50002 5.00032C7.1425 4.99652 7.76054 5.24628 8.21999 5.69539C8.30086 5.77275 8.40511 5.8211 8.5164 5.83285C8.6277 5.8446 8.73974 5.8191 8.83499 5.76033C9.10926 5.58886 9.42655 5.4987 9.75002 5.50032C9.9105 5.50127 10.0702 5.5231 10.225 5.56526L4.79006 11.0003Z" fill="#7F8C8D"/>
</svg>
