<?xml version="1.0" standalone="no"?><!DOCTYPE svg PUBLIC "-//W3C//DTD SVG 1.1//EN" "http://www.w3.org/Graphics/SVG/1.1/DTD/svg11.dtd"><svg t="1725270276868" class="icon" viewBox="0 0 1024 1024" version="1.1" xmlns="http://www.w3.org/2000/svg" p-id="11798" xmlns:xlink="http://www.w3.org/1999/xlink" width="200" height="200"><path d="M771.816273 428.551493c0.249756-4.395707 0.38962-8.811395 0.38962-13.267044 0-127.055922-102.739668-230.055337-229.485893-230.055337s-229.485893 102.999415-229.485893 230.055337c0 0.669346 0.01998 1.328702 0.029971 1.998049a212.948043 212.948043 0 0 0-38.872039-3.576508c-117.085659 0-212.002966 95.157073-212.002966 212.532449 0 117.375376 94.917307 212.532449 212.002966 212.532449 2.937132 0 5.854283-0.079922 8.761444-0.199805 2.537522 0.129873 5.085034 0.199805 7.652527 0.199805h466.894049c2.817249 0 5.604527-0.089912 8.381814-0.239766 108.853698-5.154966 195.529054-95.03719 195.529054-205.159649 0.00999-108.194341-83.648312-196.847766-189.794654-204.81998z" fill="#050101" p-id="11799"></path></svg>