<svg width="16" height="16" viewBox="0 0 16 16" fill="none" xmlns="http://www.w3.org/2000/svg">
<path d="M11.75 12H4.25C3.62484 11.9999 3.01838 11.7868 2.53053 11.3959C2.04269 11.0049 1.70257 10.4595 1.56622 9.84934C1.42987 9.23923 1.50542 8.60087 1.78043 8.03945C2.05543 7.47802 2.51348 7.02702 3.0791 6.76076C3.24864 5.97929 3.68041 5.27932 4.3027 4.77712C4.92499 4.27492 5.70035 4.00071 6.5 4.00002C7.27505 3.99715 8.02853 4.25513 8.63916 4.73244C9.00591 4.57154 9.40329 4.49243 9.8037 4.5006C10.2041 4.50877 10.5979 4.60403 10.9578 4.77976C11.3177 4.9555 11.635 5.20748 11.8876 5.51822C12.1403 5.82895 12.3223 6.19097 12.4209 6.57912C13.0715 6.74324 13.6398 7.13939 14.0188 7.69309C14.3979 8.24679 14.5616 8.91989 14.4792 9.58582C14.3967 10.2518 14.0739 10.8646 13.5713 11.3092C13.0687 11.7538 12.421 11.9995 11.75 12ZM6.5 5.00002C5.89213 5.00017 5.30514 5.22179 4.84885 5.62344C4.39257 6.02508 4.09826 6.57921 4.021 7.18215C4.0093 7.27546 3.97153 7.36357 3.91202 7.43638C3.85252 7.50918 3.77369 7.56374 3.68458 7.59377C3.29236 7.72769 2.9604 7.99647 2.7478 8.35224C2.5352 8.70801 2.45576 9.12768 2.52363 9.53654C2.5915 9.9454 2.80227 10.3169 3.11841 10.5849C3.43455 10.8529 3.83555 11 4.25 11H11.75C12.198 10.9996 12.6289 10.8275 12.9539 10.5191C13.279 10.2108 13.4735 9.7896 13.4975 9.34221C13.5215 8.89481 13.3732 8.45522 13.083 8.11384C12.7929 7.77246 12.3829 7.55524 11.9375 7.50686C11.8238 7.4948 11.7176 7.44411 11.6368 7.36325C11.5559 7.28238 11.5052 7.17624 11.4932 7.06252C11.4474 6.63255 11.2439 6.2348 10.9219 5.94619C10.6 5.65758 10.1824 5.49861 9.75 5.50002C9.42739 5.49791 9.11079 5.58731 8.83692 5.75783C8.74185 5.81746 8.62955 5.84352 8.51794 5.83184C8.40633 5.82015 8.30185 5.77141 8.22119 5.69338C7.76046 5.24569 7.14241 4.99672 6.5 5.00002V5.00002Z" fill="#7F8C8D"/>
</svg>
