<svg width="14" height="11" viewBox="0 0 14 11" fill="none" xmlns="http://www.w3.org/2000/svg">
  <path
    d="M9.35509 5.85499C9.26032 5.94794 9.13286 6.00001 9.00011 6.00001C8.86736 6.00001 8.73991 5.94794 8.64513 5.85499L7.50009 4.70494V10.5C7.50009 10.6326 7.44741 10.7598 7.35365 10.8535C7.25988 10.9473 7.1327 11 7.00009 11C6.86748 11 6.74031 10.9473 6.64654 10.8535C6.55277 10.7598 6.50009 10.6326 6.50009 10.5V4.70494L5.35509 5.85499C5.26094 5.94914 5.13324 6.00204 5.00009 6.00204C4.86694 6.00204 4.73924 5.94914 4.64509 5.85499C4.55094 5.76084 4.49805 5.63314 4.49805 5.49999C4.49805 5.36684 4.55094 5.23914 4.64509 5.14499L6.64509 3.14499C6.73947 3.05128 6.86707 2.99869 7.00007 2.99869C7.13307 2.99869 7.26068 3.05128 7.35505 3.14499L9.35505 5.14499C9.44875 5.23938 9.50134 5.36698 9.50135 5.49998C9.50136 5.63298 9.44878 5.76059 9.35509 5.85499Z"
    fill="#008184" />
  <path
    d="M10.75 7.99999H9C8.86739 7.99999 8.74022 7.94732 8.64645 7.85355C8.55268 7.75978 8.5 7.6326 8.5 7.49999C8.5 7.36738 8.55268 7.24021 8.64645 7.14644C8.74022 7.05267 8.86739 6.99999 9 6.99999H10.75C11.198 6.99957 11.6289 6.82748 11.9539 6.51912C12.279 6.21076 12.4735 5.78957 12.4975 5.34218C12.5215 4.89478 12.3732 4.45519 12.083 4.11381C11.7929 3.77243 11.3829 3.55521 10.9375 3.50683C10.8238 3.49477 10.7176 3.44408 10.6368 3.36321C10.5559 3.28235 10.5052 3.17621 10.4932 3.06249C10.4474 2.63252 10.2439 2.23477 9.92194 1.94616C9.59996 1.65755 9.1824 1.49858 8.75 1.49999C8.42739 1.49788 8.11079 1.58727 7.83692 1.7578C7.74185 1.81743 7.62955 1.84349 7.51794 1.8318C7.40633 1.82012 7.30185 1.77138 7.22119 1.69335C6.76046 1.24566 6.14241 0.996689 5.5 0.999993C4.89213 1.00014 4.30514 1.22176 3.84885 1.6234C3.39257 2.02505 3.09826 2.57918 3.021 3.18212C3.0093 3.27543 2.97153 3.36354 2.91202 3.43635C2.85252 3.50915 2.77368 3.56371 2.68458 3.59374C2.29236 3.72766 1.9604 3.99644 1.7478 4.35221C1.5352 4.70798 1.45576 5.12765 1.52363 5.53651C1.5915 5.94537 1.80227 6.31687 2.11841 6.58487C2.43455 6.85287 2.83555 6.99998 3.25 6.99999H5C5.13261 6.99999 5.25979 7.05267 5.35356 7.14644C5.44732 7.24021 5.5 7.36738 5.5 7.49999C5.5 7.6326 5.44732 7.75978 5.35356 7.85355C5.25979 7.94732 5.13261 7.99999 5 7.99999H3.25C2.62484 7.99986 2.01838 7.78676 1.53053 7.39582C1.04269 7.00488 0.702574 6.45942 0.566223 5.84931C0.429872 5.2392 0.505423 4.60084 0.780426 4.03942C1.05543 3.47799 1.51348 3.02699 2.0791 2.76073C2.24864 1.97926 2.68041 1.27929 3.3027 0.777092C3.92499 0.274892 4.70035 0.000678213 5.5 -6.73109e-06C6.27505 -0.00288261 7.02853 0.255097 7.63916 0.732413C8.00591 0.57151 8.40329 0.492395 8.8037 0.500566C9.20411 0.508738 9.59793 0.604 9.95781 0.779733C10.3177 0.955465 10.635 1.20745 10.8876 1.51818C11.1403 1.82892 11.3223 2.19094 11.4209 2.57909C12.0715 2.74321 12.6398 3.13936 13.0188 3.69306C13.3979 4.24676 13.5616 4.91986 13.4792 5.58579C13.3967 6.25172 13.0739 6.8646 12.5713 7.30919C12.0687 7.75378 11.421 7.99945 10.75 7.99999Z"
    fill="#008184" />
</svg>
