<svg width="25" height="20" viewBox="0 0 25 20" fill="none" xmlns="http://www.w3.org/2000/svg">
<path d="M20.125 14C20.125 14.2321 20.0328 14.4546 19.8687 14.6187C19.7046 14.7828 19.4821 14.875 19.25 14.875H10.5C10.2679 14.875 10.0454 14.7828 9.88128 14.6187C9.71719 14.4546 9.625 14.2321 9.625 14C9.625 13.7679 9.71719 13.5454 9.88128 13.3813C10.0454 13.2172 10.2679 13.125 10.5 13.125H19.25C19.4821 13.125 19.7046 13.2172 19.8687 13.3813C20.0328 13.5454 20.125 13.7679 20.125 14Z" fill="black"/>
<path d="M24.2462 6.37875L22.75 4.89125V0.875C22.75 0.642936 22.6578 0.420376 22.4937 0.256282C22.3296 0.0921874 22.1071 0 21.875 0H3.5C3.26794 0 3.04538 0.0921874 2.88128 0.256282C2.71719 0.420376 2.625 0.642936 2.625 0.875V3.5H0.875C0.642936 3.5 0.420376 3.59219 0.256282 3.75628C0.0921872 3.92038 0 4.14294 0 4.375V8.75C0 8.98206 0.0921872 9.20462 0.256282 9.36872C0.420376 9.53281 0.642936 9.625 0.875 9.625H2.625V18.375C2.625 18.6071 2.71719 18.8296 2.88128 18.9937C3.04538 19.1578 3.26794 19.25 3.5 19.25H21.875C21.9902 19.2507 22.1043 19.2286 22.2109 19.1851C22.3175 19.1415 22.4145 19.0773 22.4962 18.9962L24.2462 17.2462C24.3273 17.1645 24.3915 17.0675 24.4351 16.9609C24.4786 16.8543 24.5007 16.7402 24.5 16.625V7C24.5007 6.88484 24.4786 6.77069 24.4351 6.66408C24.3915 6.55747 24.3273 6.46051 24.2462 6.37875ZM1.75 7.875V5.25H6.125V7.875H1.75ZM22.75 16.2663L21.5163 17.5H4.375V9.625H7C7.23206 9.625 7.45462 9.53281 7.61872 9.36872C7.78281 9.20462 7.875 8.98206 7.875 8.75V4.375C7.875 4.14294 7.78281 3.92038 7.61872 3.75628C7.45462 3.59219 7.23206 3.5 7 3.5H4.375V1.75H21V5.25C20.9993 5.36516 21.0214 5.47931 21.0649 5.58592C21.1085 5.69253 21.1727 5.78949 21.2538 5.87125L22.75 7.35875V16.2663Z" fill="black"/>
</svg>
