<svg width="16" height="16" viewBox="0 0 16 16" fill="none" xmlns="http://www.w3.org/2000/svg">
<path d="M14.5 9.24997C14.4987 9.97893 14.2086 10.6777 13.6932 11.1931C13.1777 11.7086 12.479 11.9987 11.75 12H4.25003C3.62476 11.9998 3.01822 11.7866 2.53034 11.3955C2.04247 11.0045 1.70238 10.4589 1.56612 9.84864C1.42986 9.2384 1.50556 8.59995 1.78074 8.0385C2.05593 7.47705 2.51418 7.0261 3.07998 6.75997C3.2049 6.18239 3.47404 5.64584 3.8623 5.20035C4.25056 4.75486 4.74531 4.41494 5.3004 4.21227C5.8555 4.0096 6.45288 3.95078 7.03684 4.04131C7.62081 4.13184 8.17234 4.36875 8.64003 4.72997C8.99025 4.57772 9.36814 4.49942 9.75003 4.49997C10.3635 4.49838 10.9598 4.70238 11.4438 5.07939C11.9278 5.45641 12.2715 5.9847 12.4201 6.57993C13.0153 6.7285 13.5436 7.07221 13.9206 7.55618C14.2976 8.04015 14.5016 8.63649 14.5 9.24997Z" fill="#7F8C8D"/>
</svg>
