<!--Copyright (c) Microsoft Corporation. All rights reserved.-->
<!--Copyright (C) 2019 TypeFox and others.-->
<!--Licensed under the MIT License. See License.txt in the project root for license information.-->
<svg width="23" height="22" viewBox="0 0 23 22" fill="none" xmlns="http://www.w3.org/2000/svg">
<path d="M13.6259 14.2462C13.4329 14.2464 13.2452 14.1827 13.0922 14.0652C12.9391 13.9476 12.8292 13.7827 12.7796 13.5962C12.73 13.4097 12.7434 13.212 12.8178 13.034C12.8922 12.8559 13.0234 12.7074 13.1909 12.6116L19.7355 8.87405L9.25 2.88232V9.25C9.25 9.48206 9.15781 9.70462 8.99372 9.86872C8.82962 10.0328 8.60706 10.125 8.375 10.125C8.14294 10.125 7.92038 10.0328 7.75628 9.86872C7.59219 9.70462 7.5 9.48206 7.5 9.25V1.375C7.49991 1.22171 7.54012 1.07108 7.61658 0.938223C7.69304 0.805362 7.80308 0.694931 7.93567 0.617993C8.06825 0.541055 8.21873 0.500314 8.37202 0.499851C8.52531 0.499389 8.67603 0.539221 8.80908 0.615357L21.9341 8.11438C22.068 8.19089 22.1793 8.30145 22.2568 8.43486C22.3342 8.56826 22.375 8.71977 22.375 8.87402C22.375 9.02827 22.3342 9.17978 22.2568 9.31319C22.1793 9.4466 22.068 9.55716 21.9341 9.63367L14.0591 14.1309C13.9273 14.2066 13.7779 14.2464 13.6259 14.2462Z" fill="#BDC7C7"/>
<path d="M11 17.125C11.2321 17.125 11.4546 17.0328 11.6187 16.8687C11.7828 16.7046 11.875 16.4821 11.875 16.25C11.875 16.0179 11.7828 15.7954 11.6187 15.6313C11.4546 15.4672 11.2321 15.375 11 15.375H10.0724C10.0297 15.0014 9.95355 14.6325 9.84495 14.2725L10.7462 13.3712C10.8278 13.2897 10.8925 13.1928 10.9367 13.0862C10.9808 12.9796 11.0035 12.8654 11.0035 12.75C11.0035 12.6346 10.9808 12.5204 10.9367 12.4138C10.8925 12.3072 10.8278 12.2104 10.7462 12.1288C10.6646 12.0472 10.5678 11.9825 10.4612 11.9383C10.3546 11.8942 10.2404 11.8714 10.125 11.8714C10.0096 11.8714 9.89537 11.8942 9.78878 11.9383C9.68219 11.9825 9.58533 12.0472 9.50375 12.1288L9.04 12.5925C8.72733 12.1175 8.30488 11.7248 7.80837 11.4477C7.31186 11.1705 6.75589 11.0169 6.1875 11C5.6191 11.0169 5.06314 11.1705 4.56663 11.4477C4.07011 11.7249 3.64766 12.1176 3.335 12.5926L2.87125 12.1288C2.70649 11.964 2.48303 11.8715 2.25002 11.8715C2.01701 11.8715 1.79355 11.964 1.62878 12.1288C1.46401 12.2935 1.37145 12.517 1.37144 12.75C1.37144 12.983 1.46399 13.2065 1.62875 13.3712L2.53 14.2725C2.4214 14.6325 2.34526 15.0014 2.3025 15.375H1.375C1.14294 15.375 0.920376 15.4672 0.756282 15.6313C0.592187 15.7954 0.5 16.0179 0.5 16.25C0.5 16.4821 0.592187 16.7046 0.756282 16.8687C0.920376 17.0328 1.14294 17.125 1.375 17.125H2.30255C2.34532 17.4986 2.42145 17.8675 2.53005 18.2275L2.5038 18.2538L1.6288 19.1288C1.46485 19.2939 1.37285 19.5172 1.37285 19.75C1.37285 19.9827 1.46485 20.206 1.6288 20.3712C1.79466 20.5338 2.01771 20.625 2.25002 20.625C2.48233 20.625 2.70537 20.5338 2.87123 20.3712L3.33498 19.9074C3.64765 20.3824 4.0701 20.7751 4.56661 21.0523C5.06313 21.3295 5.6191 21.4831 6.1875 21.5C6.7559 21.4831 7.31186 21.3295 7.80837 21.0523C8.30489 20.7751 8.72734 20.3824 9.04 19.9074L9.50375 20.3712C9.66961 20.5339 9.89265 20.625 10.125 20.625C10.3573 20.625 10.5803 20.5339 10.7462 20.3712C10.9101 20.206 11.0021 19.9827 11.0021 19.75C11.0021 19.5172 10.9101 19.2939 10.7462 19.1288L9.87118 18.2538L9.84493 18.2275C9.95353 17.8675 10.0297 17.4986 10.0724 17.125L11 17.125ZM6.1875 12.75C6.98367 12.75 7.68375 13.4588 8.06875 14.5H4.30625C4.69125 13.4588 5.39133 12.75 6.1875 12.75ZM6.1875 19.75C4.9975 19.75 4 18.1487 4 16.25H8.375C8.375 18.1487 7.3775 19.75 6.1875 19.75Z" fill="#BDC7C7"/>
</svg>
