<?xml version="1.0" standalone="no"?><!DOCTYPE svg PUBLIC "-//W3C//DTD SVG 1.1//EN" "http://www.w3.org/Graphics/SVG/1.1/DTD/svg11.dtd"><svg t="1725263588864" class="icon" viewBox="0 0 1024 1024" version="1.1" xmlns="http://www.w3.org/2000/svg" p-id="1971" xmlns:xlink="http://www.w3.org/1999/xlink" width="200" height="200"><path d="M547.707 374.32V48.181c0-19.707-16-35.682-35.707-35.682s-35.707 15.975-35.707 35.682V374.32c-61.412 15.926-107.021 71.241-107.021 137.679 0 66.439 45.61 121.778 107.021 137.706v325.114c0 20.268 16 36.683 35.707 36.683s35.707-16.415 35.707-36.707v-325.14c61.413-15.902 107.021-71.267 107.021-137.681 0.001-66.436-45.608-121.728-107.021-137.654zM189.91 730.824c0.244-1.61 0.976-3.073 0.976-4.757V48.181c0-19.707-15.951-35.682-35.707-35.682-19.658 0-35.609 15.975-35.609 35.682v677.886c0 1.684 0.683 3.146 0.927 4.757-63.413 15.779-107.9 72.656-107.998 137.972 0 78.804 63.901 142.705 142.68 142.705 78.828 0 142.729-63.901 142.729-142.705-0.098-65.316-44.585-122.192-107.998-137.972z m-34.731 209.313c-39.365 0-71.315-31.976-71.315-71.39s31.951-71.339 71.364-71.339c39.414 0 71.364 31.95 71.364 71.388 0 39.414-31.95 71.364-71.413 71.341z m856.322-784.934c0-78.803-63.901-142.704-142.729-142.704-78.778 0-142.729 63.901-142.729 142.704 0.146 65.315 44.633 122.191 107.997 137.997-0.194 1.585-0.927 3.073-0.927 4.731v677.912c0 19.682 15.951 35.658 35.658 35.658s35.657-15.977 35.657-35.658V297.931c0-1.658-0.731-3.146-0.927-4.731 63.415-15.805 107.902-72.681 108-137.997z m-142.729 71.363c-39.414 0-71.364-31.974-71.364-71.388s31.999-71.364 71.413-71.34c39.414 0 71.364 31.95 71.364 71.364 0.001 39.439-31.998 71.39-71.413 71.364z" fill="#30B1E7" p-id="1972"></path></svg>