<svg width="12" height="11" viewBox="0 0 12 11" fill="none" xmlns="http://www.w3.org/2000/svg">
<path fill-rule="evenodd" clip-rule="evenodd" d="M0.878141 10.6219C0.960188 10.7039 1.07147 10.75 1.1875 10.75H10.8125C10.9285 10.75 11.0398 10.7039 11.1219 10.6219C11.2039 10.5398 11.25 10.4285 11.25 10.3125V6.81252C11.25 6.69648 11.2039 6.5852 11.1219 6.50316C11.0398 6.42111 10.9285 6.37502 10.8125 6.37502C10.6965 6.37502 10.5852 6.42111 10.5031 6.50316C10.4211 6.5852 10.375 6.69648 10.375 6.81252V9.87502H1.625V1.12502H4.6875C4.80353 1.12502 4.91481 1.07892 4.99686 0.996874C5.07891 0.914827 5.125 0.803548 5.125 0.687515C5.125 0.571483 5.07891 0.460203 4.99686 0.378156C4.91481 0.296109 4.80353 0.250015 4.6875 0.250015H1.1875C1.07147 0.250015 0.960188 0.296109 0.878141 0.378156C0.796094 0.460203 0.75 0.571483 0.75 0.687515V10.3125C0.75 10.4285 0.796094 10.5398 0.878141 10.6219ZM11.25 4.62502V0.687515C11.25 0.571483 11.2039 0.460203 11.1219 0.378156C11.0398 0.296109 10.9285 0.250015 10.8125 0.250015H6.875C6.75897 0.250015 6.64769 0.296109 6.56564 0.378156C6.48359 0.460203 6.4375 0.571483 6.4375 0.687515C6.4375 0.803548 6.48359 0.914827 6.56564 0.996874C6.64769 1.07892 6.75897 1.12502 6.875 1.12502H9.75375L5.68937 5.18939C5.64837 5.23006 5.61582 5.27845 5.59361 5.33176C5.5714 5.38508 5.55996 5.44226 5.55996 5.50002C5.55996 5.55777 5.5714 5.61495 5.59361 5.66827C5.61582 5.72158 5.64837 5.76997 5.68937 5.81064C5.73005 5.85165 5.77843 5.88419 5.83175 5.90641C5.88506 5.92862 5.94224 5.94005 6 5.94005C6.05776 5.94005 6.11494 5.92862 6.16825 5.90641C6.22157 5.88419 6.26995 5.85165 6.31062 5.81064L10.375 1.74627V4.62502C10.375 4.74105 10.4211 4.85233 10.5031 4.93437C10.5852 5.01642 10.6965 5.06252 10.8125 5.06252C10.9285 5.06252 11.0398 5.01642 11.1219 4.93437C11.2039 4.85233 11.25 4.74105 11.25 4.62502Z" fill="#008184"/>
</svg>
