<?xml version="1.0" encoding="UTF-8" standalone="no"?>
<!--Generator: Adobe Illustrator 18.1.1, SVG Export Plug-In . SVG Version: 6.00 Build 0)-->
<svg xmlns="http://www.w3.org/2000/svg" xmlns:cc="http://creativecommons.org/ns#" xmlns:dc="http://purl.org/dc/elements/1.1/" xmlns:inkscape="http://www.inkscape.org/namespaces/inkscape" xmlns:rdf="http://www.w3.org/1999/02/22-rdf-syntax-ns#" xmlns:sodipodi="http://sodipodi.sourceforge.net/DTD/sodipodi-0.dtd" xmlns:svg="http://www.w3.org/2000/svg" id="Layer_1" width="198px" height="99px" x="0px" y="0px" enable-background="new 0 0 198 99" version="1.1" viewBox="0 0 198 99" inkscape:version="0.91 r13725" sodipodi:docname="buttons.svg" xml:space="preserve">
  <metadata id="metadata327">
    <rdf:RDF>
      <cc:Work rdf:about="">
        <dc:format>
          image/svg+xml
        </dc:format>
        <dc:type rdf:resource="http://purl.org/dc/dcmitype/StillImage"/>
        <dc:title/>
      </cc:Work>
    </rdf:RDF>
  </metadata>
  <defs id="defs325"/>
  <sodipodi:namedview id="namedview323" bordercolor="#666666" borderopacity="1" gridtolerance="10" guidetolerance="10" objecttolerance="10" pagecolor="#ffffff" showgrid="false" showguides="true" inkscape:current-layer="Layer_1" inkscape:cx="45.252385" inkscape:cy="36.224987" inkscape:guide-bbox="true" inkscape:pageopacity="0" inkscape:pageshadow="2" inkscape:window-height="1000" inkscape:window-maximized="1" inkscape:window-width="1215" inkscape:window-x="65" inkscape:window-y="24" inkscape:zoom="4"/>
  <g id="g5" transform="translate(-0.12000084,0)">
    <polyline id="polyline9" stroke-miterlimit="10" points="21.453,12.745 15.788,20.571    11.775,16.658  " style="fill:none;stroke:#000000;stroke-width:2.30489993;stroke-miterlimit:10"/>
  </g>
  <g id="g23" transform="translate(-0.26100159,0)">
    <polygon id="polygon27" points="45.412,15.313 49.307,15.313 49.307,11.53 54.701,16.875 49.331,22.245 49.331,18.563 45.412,18.539 " style="fill:#000000"/>
  </g>
  <g id="g41" transform="translate(-0.54399872,0)">
    <polygon id="polygon45" points="114.44,19.083 114.44,15.116 110.586,15.116 116.032,9.621 121.502,15.091 117.751,15.091 117.726,19.083 " style="fill:#000000"/>
    <rect id="rect47" width="1" height="1" x="110.511" y="22.193001" style="fill:#000000"/>
    <rect id="rect49" width="1" height="1" x="112.518" y="22.193001" style="fill:#000000"/>
    <rect id="rect51" width="1" height="1" x="114.517" y="22.193001" style="fill:#000000"/>
    <rect id="rect53" width="1" height="1" x="116.525" y="22.193001" style="fill:#000000"/>
    <rect id="rect55" width="1" height="1" x="118.524" y="22.193001" style="fill:#000000"/>
    <rect id="rect57" width="1" height="1" x="120.531" y="22.193001" style="fill:#000000"/>
  </g>
  <g id="g59" transform="translate(-0.68600464,0)">
    <polygon id="polygon63" points="150.79,9.621 150.79,13.588 154.644,13.588 149.198,19.083 143.728,13.612 147.479,13.613 147.504,9.621 " style="fill:#000000"/>
    <rect id="rect65" width="1" height="1" x="143.65199" y="22.193001" style="fill:#000000"/>
    <rect id="rect67" width="1" height="1" x="145.66" y="22.193001" style="fill:#000000"/>
    <rect id="rect69" width="1" height="1" x="147.659" y="22.193001" style="fill:#000000"/>
    <rect id="rect71" width="1" height="1" x="149.666" y="22.193001" style="fill:#000000"/>
    <rect id="rect73" width="1" height="1" x="151.666" y="22.193001" style="fill:#000000"/>
    <rect id="rect75" width="1" height="1" x="153.673" y="22.193001" style="fill:#000000"/>
  </g>
  <g id="g149" transform="translate(-0.40299988,0)">
    <path id="path151" d="M 87.445,22.097" style="fill:#000000" inkscape:connector-curvature="0"/>
    <polygon id="polygon155" points="83.44,10.094 84.441,10.094 88.421,14.079 88.421,15.057 87.445,15.057 83.44,15.057 " style="fill:#000000"/>
    <polygon id="polygon157" points="78.404,11.093 78.404,22.097 87.445,22.097 87.445,14.87 88.421,14.87 88.421,23.134 77.399,23.134 77.399,10.094 83.562,10.094 83.568,11.093 " style="fill:#000000"/>
    <rect id="rect159" width="0.995" height="0.99599999" x="79.399002" y="12.111" style="fill:#000000"/>
    <rect id="rect161" width="0.995" height="0.99599999" x="81.394997" y="12.111" style="fill:#000000"/>
    <rect id="rect163" width="0.995" height="0.99599999" x="79.399002" y="14.103" style="fill:#000000"/>
    <rect id="rect165" width="0.995" height="0.99599999" x="81.394997" y="14.103" style="fill:#000000"/>
    <rect id="rect167" width="0.995" height="0.99599999" x="79.399002" y="16.115999" style="fill:#000000"/>
    <rect id="rect169" width="0.995" height="0.99599999" x="81.394997" y="16.115999" style="fill:#000000"/>
    <rect id="rect171" width="0.995" height="0.99599999" x="83.403" y="16.115999" style="fill:#000000"/>
    <rect id="rect173" width="0.995" height="0.99599999" x="85.400002" y="16.115999" style="fill:#000000"/>
    <rect id="rect175" width="0.995" height="0.99599999" x="79.399002" y="18.118" style="fill:#000000"/>
    <rect id="rect177" width="0.995" height="0.99599999" x="81.394997" y="18.118" style="fill:#000000"/>
    <rect id="rect179" width="0.995" height="0.99599999" x="79.399002" y="20.132" style="fill:#000000"/>
    <rect id="rect181" width="0.995" height="0.99599999" x="81.394997" y="20.132" style="fill:#000000"/>
    <rect id="rect183" width="0.995" height="0.99599999" x="83.403" y="18.118" style="fill:#000000"/>
    <rect id="rect185" width="0.995" height="0.99599999" x="85.400002" y="18.118" style="fill:#000000"/>
    <rect id="rect187" width="0.995" height="0.99599999" x="83.403" y="20.132" style="fill:#000000"/>
    <rect id="rect189" width="0.995" height="0.99599999" x="85.400002" y="20.132" style="fill:#000000"/>
  </g>
  <g id="g275" transform="translate(-0.82800293,0)">
    <rect id="rect279" width="0.99900001" height="0.99800003" x="187.819" y="16.101" style="fill:#000000"/>
    <rect id="rect281" width="0.99900001" height="0.99800003" x="189.825" y="16.101" style="fill:#000000"/>
    <rect id="rect283" width="0.99900001" height="0.99800003" x="174.83299" y="16.101" style="fill:#000000"/>
    <circle id="circle285" cx="181.80299" cy="16.101" r="4.0900002" stroke-miterlimit="10" style="fill:none;stroke:#000000;stroke-width:1.95439994;stroke-miterlimit:10"/>
    <rect id="rect287" width="2.6800001" height="4.4229999" x="175.895" y="18.427999" style="fill:#000000" transform="matrix(0.6915,0.7224,-0.7224,0.6915,69.5827,-121.6599)"/>
    <rect id="rect289" width="2.0280001" height="1.9960001" x="180.789" y="15.103" style="fill:#000000"/>
  </g>
</svg>
