<?xml version="1.0" standalone="no"?><!DOCTYPE svg PUBLIC "-//W3C//DTD SVG 1.1//EN" "http://www.w3.org/Graphics/SVG/1.1/DTD/svg11.dtd"><svg t="1725268371254" class="icon" viewBox="0 0 1024 1024" version="1.1" xmlns="http://www.w3.org/2000/svg" p-id="5711" xmlns:xlink="http://www.w3.org/1999/xlink" width="20" height="23"><path d="M197.051576 122.507175H826.949706a189.099643 189.099643 0 0 1 128.043412 49.808188c32.729154 30.733802 53.337538 72.504194 53.337538 118.82404v441.972375c0 46.299341-20.612229 88.347827-53.341383 119.035494l-1.922304 1.79415a189.144497 189.144497 0 0 1-126.119826 47.553966H197.051576c-49.54291 0-95.014378-18.864213-127.512856-49.339146l-0.524149-0.256307-0.549779-0.743291C35.985538 820.955961 15.698819 778.907475 15.698819 733.119467V291.139403c0-45.835425 20.836498-88.092801 53.311908-118.316552l0.524148-0.512614 0.574128-0.999598a187.959076 187.959076 0 0 1 126.943854-48.80859z m587.151207 396.902027c12.966584 12.10411 21.086397 28.946059 21.086397 46.578716 0 18.119641-8.119814 34.217018-21.086397 46.322409-27.082705 26.158718-72.578524 26.158718-99.911128 0h-0.275531a62.445416 62.445416 0 0 1-16.763775-24.927161H601.194282a24.605496 24.605496 0 0 1-16.515158-6.806239l-47.919203-46.810675-76.875515 198.067834c-2.973164 7.294504-10.543199 13.357452-19.48704 14.844034-12.442435 1.025229-24.085192-7.54953-24.88487-18.607906L377.862242 425.021495l-40.850249 167.891499c-0.548498 4.785256-3.521662 9.315487-7.048449 12.591094-10.01905 7.805837-24.359441 6.806239-32.479255-2.020983l-46.021248-48.82653-11.367226 20.140623a23.121477 23.121477 0 0 1-20.562249 12.591094h-56.335052c-12.716684 0-22.710104-9.338555-22.710104-20.906983 0-12.081042 9.995983-21.884794 22.710104-21.884794h42.249687l20.011188-37.00564c5.970677-10.570111 20.036819-14.589009 30.885024-9.036112a34.70272 34.70272 0 0 1 7.570034 5.017214l38.446088 40.770794 61.161317-249.686832c2.449016-11.847803 14.615921-19.142307 26.808456-16.354966 10.017769 1.765957 17.063655 9.803752 18.137583 18.120923l40.874598 336.756967 57.112944-145.710671c4.322622-11.359537 17.314836-16.866298 28.96272-13.102426 3.521662 1.50965 6.494826 2.764274 8.943841 5.018496l66.307967 65.207127h56.588795a66.748815 66.748815 0 0 1 16.763776-25.182187h0.27553c27.332605-25.414145 72.828423-25.414145 99.911129 0z m-31.979455 30.223751a27.782424 27.782424 0 0 0-36.002198 0c-4.048373 4.275205-7.020256 9.803752-7.020255 15.843632v1.254624a20.982593 20.982593 0 0 0 7.020255 15.355367 26.682866 26.682866 0 0 0 36.002198 0 21.71435 21.71435 0 0 0 7.048449-16.098658 24.605496 24.605496 0 0 0-7.048449-16.354965z m74.726378-355.922342H197.051576a110.224932 110.224932 0 0 0-73.902351 28.457793v0.256308c-19.212791 17.864615-31.129797 42.001069-31.129797 68.714691v441.972375c0 26.668769 11.918287 51.107665 31.129797 68.97228a109.382963 109.382963 0 0 0 73.902351 28.667966H826.949706c28.132284 0 54.141062-10.547043 72.554174-27.413342l1.599358-1.254624c18.966736-17.864615 30.605649-42.303511 30.605648-68.97228V291.139403c0-26.716186-11.642757-50.85264-30.605648-68.717254a108.241114 108.241114 0 0 0-74.153532-28.714101z" fill="#3B3F51" p-id="5712"></path></svg>