<svg width="24" height="16" viewBox="0 0 24 16" fill="none" xmlns="http://www.w3.org/2000/svg">
<path fill-rule="evenodd" clip-rule="evenodd" d="M10.1858 13.92C8.73525 13.92 7.38744 13.4748 6.27173 12.7138L4.24581 14.7397C3.89434 15.0912 3.3245 15.0912 2.97303 14.7397C2.62156 14.3882 2.62156 13.8184 2.97303 13.4669L4.92544 11.5145C3.86685 10.2933 3.2258 8.70059 3.2258 6.95998C3.2258 3.11999 6.3458 0 10.1858 0C14.0258 0 17.1458 3.11999 17.1458 6.95998C17.1458 10.8 14.0258 13.92 10.1858 13.92ZM10.1858 2.4C7.6658 2.4 5.6258 4.43999 5.6258 6.95998C5.6258 9.47998 7.6658 11.52 10.1858 11.52C12.6938 11.52 14.7458 9.47998 14.7458 6.95998C14.7458 4.45199 12.7058 2.4 10.1858 2.4ZM17.9619 7.47017C17.9619 8.02365 18.4106 8.47233 18.9641 8.47233C19.5176 8.47233 19.9662 8.02365 19.9662 7.47017C19.9662 6.91669 19.5176 6.468 18.9641 6.468C18.4106 6.468 17.9619 6.91669 17.9619 7.47017ZM1.001 8.47246C0.448162 8.47246 0 8.0243 0 7.47147C0 6.91863 0.448162 6.47047 1.001 6.47047C1.55383 6.47047 2.002 6.91863 2.002 7.47147C2.002 8.0243 1.55383 8.47246 1.001 8.47246ZM22.7923 8.47233C22.2389 8.47233 21.7902 8.02365 21.7902 7.47017C21.7902 6.91669 22.2389 6.468 22.7923 6.468C23.3458 6.468 23.7945 6.91669 23.7945 7.47017C23.7945 8.02365 23.3458 8.47233 22.7923 8.47233ZM10.1978 8.23198C9.49529 8.23198 8.9258 7.66249 8.9258 6.95999C8.9258 6.25748 9.49529 5.68799 10.1978 5.68799C10.9003 5.68799 11.4698 6.25748 11.4698 6.95999C11.4698 7.66249 10.9003 8.23198 10.1978 8.23198Z" fill="black"/>
</svg>
