<?xml version="1.0" standalone="no"?><!DOCTYPE svg PUBLIC "-//W3C//DTD SVG 1.1//EN" "http://www.w3.org/Graphics/SVG/1.1/DTD/svg11.dtd"><svg t="1725268214060" class="icon" viewBox="0 0 1024 1024" version="1.1" xmlns="http://www.w3.org/2000/svg" p-id="3609" xmlns:xlink="http://www.w3.org/1999/xlink" width="20" height="23"><path d="M96 64a32 32 0 0 1 32 32V896h779.136a32 32 0 1 1 0 64H96a32 32 0 0 1-32-32v-832a32 32 0 0 1 32-32z m734.912 0c16.64-0.32 32.64 5.312 45.312 15.68l6.08 5.568 73.792 75.776c24.768 25.6 27.392 64.768 7.488 93.248l-5.44 6.912L632.064 624a32 32 0 0 1-8.512 6.656l-4.928 2.112-140.032 48a64 64 0 0 1-121.664-36.864L274.688 549.888a64 64 0 1 1 49.408-41.28l82.176 83.904h0.32l43.2-132.864a33.472 33.472 0 0 1 3.968-8.192l2.816-3.584 323.84-360.512c11.008-12.352 26.048-20.352 42.24-22.656l8.32-0.64zM494.144 530.752l-26.432 81.792c0.64 0.64 1.28 1.344 1.792 2.112l79.744-27.328-55.04-56.576z m199.424-249.536L524.416 469.248l83.008 85.12 169.152-187.84-83.008-85.312z m137.664-155.2l-94.272 106.24 83.072 85.376 95.424-106.112-84.224-85.504z" fill="#333333" p-id="3610"></path></svg>