<svg width="16" height="19" viewBox="0 0 16 19" fill="none" xmlns="http://www.w3.org/2000/svg">
<path d="M6 18.0019C5.62402 18.0019 5.27637 17.79 5.10547 17.4492L2.38184 12.0019H1C0.44727 12.0019 0 11.5546 0 11.0019C0 10.4492 0.44727 10.0019 1 10.0019H3C3.37891 10.0019 3.72461 10.2158 3.89453 10.5546L5.68555 14.1367L9.03028 0.759723C9.13868 0.322223 9.52637 0.0126525 9.97657 0.00191246C10.4209 -0.0273875 10.8281 0.283163 10.958 0.714803L13.7442 10.0019H15C15.5527 10.0019 16 10.4492 16 11.0019C16 11.5546 15.5527 12.0019 15 12.0019H13C12.5586 12.0019 12.169 11.7119 12.042 11.289L10.0879 4.77437L6.96974 17.2441C6.86818 17.6504 6.5254 17.9502 6.10939 17.9961C6.07228 18 6.03615 18.0019 6.00001 18.0019H6Z" fill="black"/>
</svg>
