<svg width="13" height="3" viewBox="0 0 13 3" fill="none" xmlns="http://www.w3.org/2000/svg">
<path d="M6.1875 2.25C6.80882 2.25 7.3125 1.74632 7.3125 1.125C7.3125 0.50368 6.80882 0 6.1875 0C5.56618 0 5.0625 0.50368 5.0625 1.125C5.0625 1.74632 5.56618 2.25 6.1875 2.25Z" fill="black"/>
<path d="M11.25 2.25C11.8713 2.25 12.375 1.74632 12.375 1.125C12.375 0.50368 11.8713 0 11.25 0C10.6287 0 10.125 0.50368 10.125 1.125C10.125 1.74632 10.6287 2.25 11.25 2.25Z" fill="black"/>
<path d="M1.125 2.25C1.74632 2.25 2.25 1.74632 2.25 1.125C2.25 0.50368 1.74632 0 1.125 0C0.50368 0 0 0.50368 0 1.125C0 1.74632 0.50368 2.25 1.125 2.25Z" fill="black"/>
</svg>
