<svg width="17" height="15" viewBox="0 0 17 15" fill="none" xmlns="http://www.w3.org/2000/svg">
<path d="M15.71 7.71253L9.70996 13.7125C9.51001 13.9025 9.26001 14.0026 9 14.0026C8.73999 14.0026 8.48999 13.9025 8.29004 13.7125C7.90003 13.3226 7.90003 12.6825 8.29004 12.2926L12.5901 8.00257H1C0.44995 8.00257 0 7.55261 0 7.00256C0 6.45251 0.44995 6.00256 1 6.00256H12.5901L8.29004 1.71253C7.90003 1.32264 7.90003 0.682495 8.29004 0.292605C8.67993 -0.097535 9.32007 -0.097535 9.70996 0.292605L15.71 6.2926C16.1 6.68249 16.1 7.32264 15.71 7.71253V7.71253Z" fill="black"/>
</svg>
